/* XPM */
static char *_b657c47f0a74b7eca7a0974e94bb238MRRhQyfGw1xLZHVS[] = {
/* columns rows colors chars-per-pixel */
"50 50 220 2 ",
"   c #18263B",
".  c #282A37",
"X  c #302931",
"o  c #2E303D",
"O  c #33343B",
"+  c #38373C",
"@  c #49373D",
"#  c #4E3438",
"$  c #282F42",
"%  c #253144",
"&  c #2D3443",
"*  c #2C3649",
"=  c #2C3A4C",
"-  c #273549",
";  c #323544",
":  c #3B3B44",
">  c #333C4B",
",  c #3B3C4C",
"<  c #353943",
"1  c #2D3C53",
"2  c #323F52",
"3  c #413E4C",
"4  c #4D3C42",
"5  c #3C424E",
"6  c #3D4146",
"7  c #354254",
"8  c #3C4553",
"9  c #3E4956",
"0  c #354459",
"q  c #39465A",
"w  c #3D4A5C",
"e  c #3D4C62",
"r  c #44444C",
"t  c #4A444C",
"y  c #5C4449",
"u  c #58444A",
"i  c #444453",
"p  c #434954",
"a  c #4B4C54",
"s  c #434C5B",
"d  c #4B4C5A",
"f  c #4D4655",
"g  c #524D55",
"h  c #514D5C",
"j  c #5D4B54",
"k  c #45515E",
"l  c #4C525C",
"z  c #53535B",
"x  c #5C545D",
"c  c #59555A",
"v  c #664F56",
"b  c #63565D",
"n  c #6A565C",
"m  c #725759",
"M  c #474E64",
"N  c #445263",
"B  c #4C5463",
"V  c #4D5966",
"C  c #4B566A",
"Z  c #4C596B",
"A  c #465668",
"S  c #535562",
"D  c #5B5562",
"F  c #545A64",
"G  c #5C5C64",
"H  c #535C6C",
"J  c #5B5E6A",
"K  c #5A5768",
"L  c #4E5D72",
"P  c #525D72",
"I  c #585D73",
"U  c #635664",
"Y  c #625B64",
"T  c #6C5B66",
"R  c #655C6A",
"E  c #695C6A",
"W  c #745B65",
"Q  c #765E66",
"!  c #5E6065",
"~  c #5C616C",
"^  c #57606E",
"/  c #566373",
"(  c #5C6474",
")  c #5E6A7B",
"_  c #5C6678",
"`  c #636166",
"'  c #63636B",
"]  c #6A646C",
"[  c #6C666A",
"{  c #7C616D",
"}  c #75676E",
"|  c #626672",
" . c #646973",
".. c #6C6C74",
"X. c #646C7B",
"o. c #696876",
"O. c #716673",
"+. c #7A6D73",
"@. c #776B77",
"#. c #65707E",
"$. c #6D717B",
"%. c #757176",
"&. c #73747C",
"*. c #7D757B",
"=. c #797A7F",
"-. c #82666B",
";. c #836874",
":. c #896C75",
">. c #876B78",
",. c #84727C",
"<. c #8D727E",
"1. c #8B787C",
"2. c #93787F",
"3. c #5E7182",
"4. c #6A7586",
"5. c #7B7C84",
"6. c #777A87",
"7. c #676C80",
"8. c #837B85",
"9. c #887885",
"0. c #947A85",
"q. c #957886",
"w. c #7C838C",
"e. c #74808E",
"r. c #7C8392",
"t. c #7E8D9C",
"y. c #788493",
"u. c #8D838A",
"i. c #85888F",
"p. c #9D828B",
"a. c #97878B",
"s. c #838994",
"d. c #898995",
"f. c #978B94",
"g. c #979399",
"h. c #A3868A",
"j. c #A48B8C",
"k. c #A48B93",
"l. c #A88A92",
"z. c #A69295",
"x. c #B29698",
"c. c #858AA2",
"v. c #8594A4",
"b. c #8E9CAE",
"n. c #8999A6",
"m. c #939CAD",
"M. c #9A9AA5",
"N. c #A39EA9",
"B. c #B69FA2",
"V. c #8EA1AD",
"C. c #9AA2AD",
"Z. c #95A2B3",
"A. c #9BABBA",
"S. c #98A8B4",
"D. c #9DB4BD",
"F. c #98B4B7",
"G. c #A6A4AA",
"H. c #BAA8AB",
"J. c #A4ABB3",
"K. c #A1ADBC",
"L. c #A6A9B5",
"P. c #A3B4BC",
"I. c #ABB4BE",
"U. c #A4B9BD",
"Y. c #B2B1B7",
"T. c #C1A4A9",
"R. c #9FBCC0",
"E. c #A1AEC1",
"W. c #A4B3C4",
"Q. c #ACB5C4",
"!. c #A7BBC4",
"~. c #AABCC4",
"^. c #AEBCCA",
"/. c #AEB2CB",
"(. c #B3BCC5",
"). c #B1BDCB",
"_. c #B6BBD1",
"`. c #AEC1CC",
"'. c #ADC1C7",
"]. c #B3C4CD",
"[. c #BAC4CD",
"{. c #B4C4D1",
"}. c #BAC5D5",
"|. c #BAC9D6",
" X c #BBCBD8",
".X c #BAC7D6",
"XX c #C7C7CD",
"oX c #C4CBD5",
"OX c #C3CDDB",
"+X c #C6C6D3",
"@X c #C7D0DF",
"#X c #CDD4DE",
"$X c #D1D6DD",
"%X c #D3DBDF",
"&X c #CCD4E2",
"*X c #CFD8E7",
"=X c #C3D0E0",
"-X c #D0D7E1",
";X c #D4DBE5",
":X c #D4DCEA",
">X c #D8DFEA",
",X c #D9DDF3",
"<X c #C7CDE5",
"1X c #D7E0EF",
"2X c #DCE3ED",
"3X c #DBE4F3",
"4X c #DFE8F6",
"5X c #DCE6F7",
"6X c #E1E5EE",
"7X c #E0E7F2",
"8X c #E3EAF4",
"9X c #E3ECFB",
"0X c #E9EEFC",
"qX c #E0E6F9",
"wX c #E7F0FD",
"eX c #EBF3FD",
"rX c #EEF9FD",
"tX c #F0F7FF",
"yX c #F4FDFE",
"uX c #F8FFFF",
/* pixels */
"0X0XwX0XwXwXwXwX9X0XwXwX9XwXwXeXeXeXeXtXtXtXyXuXuXuXuXuXuXuXuXuXyXyXuXyXyXyXrXrXrXrXrXrXrX8XrXrX8XrX",
"9X9XwX9X9XwXwX9X9X9X9XwXwXwXwXeXeXeXeX0XeXtXtXyXuXyXyXuXuXyXyXyXyXyXyXyXrXrXrXrXrXrXrX8XrXrXrXrXrXrX",
"5X4X4X4X9X9X9X9X9XwXwX9XwXwXwXwX0X0X0X0X0XtXtXtXyXyXyXyXyXyXyXyXrXyXrXrXrXrX8XeXrXrX8XrXeXeXeXeX6XrX",
"5X5X5X4X4X4X4X9X9X9X9XwX0XwXwXwX0XeX0X0XeXtXtXtXuXuXuXuXuXuXuXuXyXrXrXrXeXrXeXeX6X8XrXrXeXeXeXrXrXrX",
"1X1X1X3X4X4X4X9X9X9XwXwXwXwXwXeXtXtX0XtXtXtXyXuXuXuXuXuXuXuXuXuXyXyXyXrXrXrXrXrXyXyXrXrXrXrXrXrXrXrX",
"1X1X5X5X4X4X4X9X9XwX9XwXwXwXwXwXtXeXtXeXtXtXtXuXuXuXuXuXuXuXuXuXyXyXyXyXrXrXrXrXrXrXrXrXrXrXrXrXrXrX",
"1X1X3X5X4X9X9X9X9X9X9X0XwXwXeXwX0XtX0XtXtXtXtXyXyXyXuXyXyXuXyXyXyXyXyXrXrXrXrXrXrXrXrXeXrXrXrXwXrX8X",
"1X1X5X5X4X4X9X0X9X9X0XwXwXwXwXwX0X0X0X0XeXtXtXtXtXtXrXrXeXrXrXeXyXyXyXrXrXrXrXrX8XrXeXeXeXeXwXrXrXrX",
"5X3X3X5X4X4X4X9XwXwXwXwXwXwXwXwX0XeXtXtX0X7X7X8X6X6X3X0XtX0X0XyXwXeXwXeXwXwXwXeXwXwXeXwXeXeXeXwX6X8X",
"3X5X5X4X4X9X9X9X0X9XwXwXwXwXwXwXtX7X;X>X8XtXuXuXyXuXuXuXtX0XqX0XwXwXeXwXwXeXeXwX8XwXwXwXwXwXwXwX8XeX",
"5X4X4X4X9X9X9X9X9X9X9X9X9X4X9X9X8X8X8X0XtX8X=X).XX-X,XqX0X0X0XqXwXwXwXwXwXwXwXwXwX8X9X9X8XwX8XwX8X8X",
"4X4X4X9X9X9XwX9X9X9X9X9X9X9X9X9X2X0XtXtX;XQ.s.o.6.6.8.b.}.0XtXqX9XwXwX9XwXwX9X9XwX8X9X8X4X4X4X4X8X8X",
"5X4X9X9X9X9X0XwX9X9X9X0X9XwX9XwX6X0X2XY.r.$.X.X.I I I 7.c._.,X9X9X9X9X9X9X9X9X9X8X4X4X4X4X5X5X3X7X7X",
"5X4X4X4X9X9X9X9X9XwXwX9XwX9X9XwX8X8X[.i.S B ~ X.M M 7.7.I 6./.0X4X9X9X9X9X9X4XwX9X9X9X4X4X5X3X3X4X7X",
"3X3X3X4X4X9X9X9X9X9X9X9X9X9X9X9X8X%XJ.=.o.o._ M K M I I M C 8.<X4X4X9X4X5X4X4X4XwX9X9X4X4X4X5X5X4X5X",
"3X3X5X3X5X4X4X9X4X4X9X4X4X4X4X9XeXXXi.! 7.f.d.R 9.K f I I M 7.Z.4X9X5X4X9X4X4X4XwX9X9X9X4X3X4X2X4X5X",
"1X3X3X5X4X4XwX4X5X3X3X5X4X3X3X3XeX$Xc %.H.f.B.j.j.a.1.u.} =.c g.8X8X6X8X8X8X8X8X8X8X8X9X8X8X7X4X3X1X",
"1X1X3X3X5X5X5X5X3X3X5X3X3X3X5X3X2XXXc 1.H.j.B.x.j.j.a.g.u.g...n.8X8X6X6X8X8X8X6X2X2X8X2X7X7X2X2X:X,X",
"3X1X1X3X3X3X3X1X3X3X5X3X3X3X3X2X2XXX%.a.H.z.T.x.x.x.j.z.f.G...w.8X6X6X2X8X8X8X2X2X2X2X2X7X7X7X2X,X,X",
"3X3X3X1X3X1X1X1X3X3X1X3X3X3X3X3X6XXXu.f.z.2.h.h.j.z.h.j.u.G.[ u.8X2X2X2X8X8X6X2X2X4X6X8X7X8X7X7X1X1X",
"3X5X3X3X3X3X3X3X3X3X3X1X3X1X3X2X6XY.*.%.T y m m -.:.-.+.} g.=.J.6X2X2X2X4X6X2X2X6X7X2X2X2X2X1X1X;X:X",
"3X3X3X3X3X3X3X3X1X3X1X3X3X1X1X3X8XG.*.[ 4 # # # -.m y j t } [ Y.2X2X2X2X2X6X2X;X2X2X2X;X*X$X#X$X#X=X",
"1X1X1X1X3X3X3X3X1X3X1X3X1X3X3X2XrXG.i.,.j u y y j.Q @ 4 + c c J.2X2X2X2X2X2X2X2X2X;X%X#X#X#X#X#X#X#X",
"*X*X:X1X1X1X3X5X1X1X1X1X1X1X,X3X0Xz.g.u.[ m m v T.-.# u g ] ..oX2X2X;X2X2X2X2X;X1X%X$X*X#X$X$X*X-X;X",
"*X*X=X*X1X1X:X*X,X@X=X*X:X5X=XC.0.7.9.N.q.-.;.q.x.2.Q U U @.N.@X>X;X>X>X2X2X2X;X2X2X1X2X2X2X2X2X;X;X",
"5X3X1X:X3X5X5X3X9X*X9XeX&Xm.7., , 3 O.9.q.q.q.q.l.q.,.,.+.8.N.+X$X>X8X6X;X%X2X0X2X2X2X2X2X2X2X2X7X7X",
"5X3X:X*X:X1X3X1X9X*X1X,XS.H > > * , K 6.9.q.q.q.:.-.<.0.0.M.+XeX;X2X6X2X>X2X2X8X2X2X2X2X2X2X1X2X6X6X",
"5X1X:X:X*X:X:X:X:XOX&X}.6.7 p V f $ 3 9.q.;.W -.W W Q ,.8.f.+XuX0X2X>X2X8X8X2X$X%X2X2X2X;X#X$X&X(.(.",
",X5X5X5X3X1X1X:X&X*X*XW.I , M 2 , . 3 O.9.W ;.q.;.;.;.{ R K 6.L.2X6X0XwXwX2X2X*X2X2X2X2X$X$X&X$X6X6X",
"-X:X:X:X*X*X*X*X3X&X).6.9 > M , ; 3 U U U q.q.q.q.q.q.9.R 3 3 M C.oXrXyX6X#X%X8X2X2X%X1X2X2X2X;X$X$X",
"=X&X@XOX XOX=X:X:XK.6.H 2 i C K 3 K 6.7.U 9.q.q.9.;.9.9.E 3 ; 3 l s.[.>X2X#X;X2X2X%XXX X$X1X*X#X%X%X",
":X-X@X}.}. X:X5X{.6.P X.( B M q , 3 E 9.U y W q.;.W W E h ; $ 3 . 8 6.U.1X2X:XoX&X[.I.I.[.oXoX[.oXXX",
":X4X1X_.U..X.XW.4.) / _ / A w s * 2 d R @.O.v 4 4 b *.8.| , ; > q w e / t.R.|.^..X^.Z.b.W.^.W._.R.W.",
"=X:X*X!.V.t.e.) ^ V ^ ) ) H k 9 s s i d G ] } } %.,.=.%.S ; $ = * 0 e A e.t.R.R.W.E.b.b.E.E.b.E.V.V.",
"K.K.A.n.e._ V l k w k H ^ V k k 2 > > : r g G ` %.[ ` z 8 ; 2 e 7 w e e A #.t.V.t.E.t.t.Z.b.t.n.t.n.",
"Z.r.4.3.) H V / V 9 7 8 9 9 w A 2 2 * $ . . + : g 6 O o & > w A 7 e V V A / e.t.t.E.E.b.E.E.Z.E.F.E.",
"C.6.V F ^ B l V V 9 7 6 5 - 5 7 L M q - . . o ; : o o ; 7 2 2 0 7 0 w V Z ^ / ) E.|. X^..X.X^..X`.`.",
"e./ k l ^ V k s k 7 6 9 9 6 o o 2 0 M Z C s ; . & o > N H N 0 2 7 7 7 w A N w w A.<X<X.X.X.X_.|.{.{.",
"F k p s l l l l 9 6 5 l l 5 7 -   % 0 L / Z q - * > 9 P / Z e q 7 . 7 7 w 9 5 9 t.^.=X{.`.`.!.`.`.`.",
"l V l p 5 8 s l l 9 6 9 9 9 9 9 2 -     2 A P 3.q q N L Z e 1 - 6 7 6 7 k 9 9 V 3.A. X|. X|.`.|.`.`.",
"~ ~ ^ ! ^ ! F l ~ ! l 5 6 5 9 p 7 2 = - - - 1 0 A L L M 7 = 0 d M S B i p 5 s #.K.).^.'..X`.~. X`.`.",
"~ ~ ~ ~ ~  . . . .~ ^ ! ^ ( #...o./ B N N e 1 - 1 e e w 7 7 9 M f B f i s p d X.(.}.].).[.~.P.].`.^.",
" . .! F ! !  . .~ ~ ~  .$.=.=.w.6.4.( _ _ P e % % 1 q s M s s d , f 3 3 d f d  .[.OX[.(.].'.D.~.!.^.",
" .! l l 6 9 l ! ~ ! !  .=.&.$...o.| ~ X.7._ A 0 1 0 M V H d a r 3 i , 3 d d p ~ I.[.].~.{.].'.].!.!.",
"! F z a 6 + 6 ! ! F ! $.e.=.....` ` ' ~ / I Z N q M C V c l r + D D f f D d a J M.(.[.U.].].'.].!.!.",
"' F F z 6 6 a  .F a l ..=.&... .[ [ ] ' K S N N = 2 s B l t r t E O.U D K d d ' i.I.[.U.'.'.U.!.R.!.",
"` ! ! ! a + 6 ! c 6 t [ =.%.' [ ..[ ` ' ' ~ C N > 9 B h c g j b O.@.E D c t a  .&.F.[.'.U.J.F.U.E.R.",
"' ! ` ! r X + c ! a z ..5.&.' ' b j c Y o.$.J B 8 B ' R c c [ %.E O.U h a + 6 ! ` C.[.U.U.F.F.U.R.F.",
"F ! c a a 6 X 6 ! ! ! ....` Y Y x Y T ` ] ` z 6 6 z ..[ G c b b x ] x + X r g g ! s.P.'.~.D.D.R.F.R.",
"l F l r 9 + O 6 ! c ! [ [ b x Y Y [ } [ ] Y a + 6 G ..[ c c b b x ] x + X t c g z w.J.!.F.F.F.F.S.F."
};
