/* XPM */
static char *b5c89dfd916b47da892d4ecde2e5f543QLvbXV6qS6q8k5Z0[] = {
/* columns rows colors chars-per-pixel */
"50 48 185 2 ",
"   c #1D1E31",
".  c #1E2235",
"X  c #1F2438",
"o  c #212336",
"O  c #22253A",
"+  c #25293D",
"@  c #2A2D3F",
"#  c #262A40",
"$  c #292E42",
"%  c #2B3144",
"&  c #2E354A",
"*  c #31364A",
"=  c #32394D",
"-  c #343C53",
";  c #482C48",
":  c #59384A",
">  c #62384C",
",  c #6A3B4C",
"<  c #6C3B60",
"1  c #773F60",
"2  c #374056",
"3  c #394356",
"4  c #374059",
"5  c #3B445B",
"6  c #3E485E",
"7  c #3E4760",
"8  c #3F4962",
"9  c #52444D",
"0  c #6F414C",
"q  c #74454D",
"w  c #794B4F",
"e  c #6B435F",
"r  c #76445F",
"t  c #78425F",
"y  c #7E5050",
"u  c #414C64",
"i  c #504361",
"p  c #5C4C62",
"a  c #455164",
"s  c #485366",
"d  c #465169",
"f  c #4A566C",
"g  c #4D5A6E",
"h  c #50586C",
"j  c #4E5D73",
"k  c #515E74",
"l  c #634A61",
"z  c #7C4763",
"x  c #655466",
"c  c #695B63",
"v  c #67586A",
"b  c #7C5363",
"n  c #536275",
"m  c #586577",
"M  c #55647A",
"N  c #58677A",
"B  c #57687E",
"V  c #5A6A7D",
"C  c #7C6364",
"Z  c #7D6668",
"A  c #746577",
"S  c #7C6E7F",
"D  c #855750",
"F  c #875B52",
"G  c #885B51",
"H  c #824760",
"J  c #944D65",
"K  c #8B5464",
"L  c #8C5968",
"P  c #9D5363",
"I  c #945B65",
"U  c #885F70",
"Y  c #A45464",
"T  c #AA5566",
"R  c #A35A64",
"E  c #AD5C65",
"W  c #B15E64",
"Q  c #9B6268",
"!  c #9D7269",
"~  c #8A6778",
"^  c #9A6471",
"/  c #A46266",
"(  c #AC656A",
")  c #B16365",
"_  c #BA6666",
"`  c #BA6A67",
"'  c #BC6A67",
"]  c #B36268",
"[  c #A87669",
"{  c #B9736A",
"}  c #BB7B6F",
"|  c #A26976",
" . c #A07971",
".. c #C06E67",
"X. c #C26F68",
"o. c #C57369",
"O. c #C4796B",
"+. c #CC7B6A",
"@. c #D07E6B",
"#. c #99817F",
"$. c #AA8278",
"%. c #BB8777",
"&. c #CC816D",
"*. c #D5846C",
"=. c #D68B6D",
"-. c #DD8D6C",
";. c #DC906F",
":. c #C88575",
">. c #D58C72",
",. c #DA8F72",
"<. c #DA9073",
"1. c #E08F6E",
"2. c #5D6D81",
"3. c #5F7185",
"4. c #626F83",
"5. c #627286",
"6. c #687687",
"7. c #647689",
"8. c #66798D",
"9. c #697B8E",
"0. c #737386",
"q. c #7F7384",
"w. c #747B8A",
"e. c #677B90",
"r. c #697C90",
"t. c #717F91",
"y. c #857D82",
"u. c #6D8293",
"i. c #6F869B",
"p. c #718395",
"a. c #788696",
"s. c #7A8997",
"d. c #738598",
"f. c #74899B",
"g. c #7A8B9A",
"h. c #778EA1",
"j. c #7794A6",
"k. c #7E93A3",
"l. c #95868B",
"z. c #BD988E",
"x. c #8295A5",
"c. c #8E95A2",
"v. c #8297A8",
"b. c #859AAB",
"n. c #8A9EAC",
"m. c #8C9FB0",
"M. c #A299A2",
"N. c #8BA0AE",
"B. c #8EA0AD",
"V. c #8FA1AE",
"C. c #90A1AE",
"Z. c #86A4B3",
"A. c #8EA3B1",
"S. c #8AAABA",
"D. c #91A5B5",
"F. c #9DA3B1",
"G. c #98A9B6",
"H. c #94AABA",
"J. c #9AAFBD",
"K. c #ABA5A9",
"L. c #B7A5A5",
"P. c #A2A6B2",
"I. c #AEAEB3",
"U. c #B0AFB2",
"Y. c #ADB4BD",
"T. c #B3B2B3",
"R. c #B9B0B0",
"E. c #94B6C4",
"W. c #9CB3C2",
"Q. c #96B8C7",
"!. c #98BCCA",
"~. c #A1B6C4",
"^. c #A2B9C6",
"/. c #A7BDC9",
"(. c #A9BECA",
"). c #9BC6D2",
"_. c #A3C1CE",
"`. c #A9C1CD",
"'. c #A4CAD7",
"]. c #ABC8D4",
"[. c #A6CDDA",
"{. c #ABCFDB",
"}. c #A9D2DE",
"|. c #ABD4E1",
" X c #AAD6E2",
/* pixels */
". O @ @ + $ $ $ % % $ @ @ @ @ % @ % % @ @ @ % @ @ % @ @ % @ % % $ $ % $ $ $ $ % @ + + + O O + X . . ",
"O n x.d.8.B.C.C.B.C.x.V c.C.C.C.C.C.C.C.C.C.C.C.C.C.B.N.B.B.C.C.C.m.C.C.C.n.C.c.6.V V V 2.V 2.j - o ",
"+ 2.h.f.u.n.|.].D.k.k.u.k.k.E.}.^.b.x.H.(.(.`.|.}.G.x.k.k.9.a.D.~.x.e.7.4.4.4.4.b.x.V n j j j s - X ",
"+ 2.e.e.e.f.[.H.3.j 8.r.u.8.S.'.x.g V k.H.^.A.'.J.9.g u.9.N n 8.x.B - - u u u u a.p.s = 7 8 8 8 - X ",
"+ 2.r.e.e.p.A.5.= 4 r.e.e.9.k.x.g @ m u.k.J.u.A.e.- = 8.9.3.n M k - + - u 6 6 u m s $ + 6 7 8 8 - . ",
"+ N 7.7.7.7.5.- X 4 7.7.7.7.7.n @ + n 8.k.D.u.7.5 O - 7.7.f n M 7 # o - 7 u 8 u u * o @ 6 8 8 8 - X ",
"o 6 a u u u u 6 5 6 u u u u u u 4 4 8 M 9.u.6.s 6 5 5 u u 8 8 8 u - 5 5 5 u 8 8 u 6 3 5 8 6 6 8 - o ",
". O # # # + + + @ # # + + + + + @ + @ % = * & @ + + @ + + @ # # + + # # # O + + + + @ + + + + # + o ",
"  . $ * & & & & & 9 F F G q w G G G G : : G D q y w , > ; > , , , , , ; : , , , = & & & & & & +   . ",
"= O 6 k j g g j a Z <.;.1._ X.1.1.1.1.R R 1.-.X.*.+.` ( < J ] W T T T z H T T T p d j j g j j 2 O 3 ",
"5.$ m u.u.8.9.9.n C -.-.-._ X.-.1.1.-...` -.-.-.-.-.-.+.< P +.@.W W W t H W T T p M u.8.u.9.u.8 = 8.",
"5.% d.n.9.9.9.9.j C -.-.-.' X.-.-.-.-.X.' -.-.-.-.-.-.*.z { -.,.*.-.*.K I +.T T p N 8.u.8.9.r.a * 8.",
"7.$ g.m.e.9.9.9.j C -.-.-._ ..-.-.-.-...' -.-.-.-.-.1.*.Y +.-.-.,.-.-.) ` -.*.&.x M 9.r.u.8.u.a * 8.",
"5.* g./.Q.m.u.9.j C -.-.-._ o.-.-.-.-...' -.-.-.-.-.-.*.W @.,.-.-.-.-._ ` -.-.=.c M j.!.A.f.8.a * 8.",
"5.& s.{.[.v.k 5.j C -.-.=._ ..-.-.-.-.' ` 1.-.-.-.-.-.*.W @.1.-.-.-.-._ o.-.-.=.v M Z.}.N.m 3.a = 8.",
"5.$ s.^.x.j @ m n C -.-.-._ X.-.-.-.-...` -.-.-.-.-.-.*.W @.1.-.-.<.-._ ` -.-.=.v M h.A.M $ f d = 8.",
"5.& g.N.M % # V k C -.-.-._ X.-.-.-.-...' -.-.-.-.-.-.*.W +.-.-.-.-.-.' ..-.-.=.c n u.V % + j a * 7.",
"5.% s.N.7.2.5.8.k C -.-.-._ X.-.-.-.-...' -.-.-.-.-.1.*.W *.-.-.-.-.-.' ..-.-.=.c j u.u.3.2.8.d * e.",
"5.% g.N.9.r.e.e.j C =.-.-._ X.1.-.-.-.' ' -.-.-.-.-.-.*.W +.-.-.-.-.-.' ..-.-.=.c M 8.u.u.e.u.8 - e.",
"5.% g.N.e.r.e.9.k C -.-.-._ ..1.-.-.-...' 1.-.-.-.-.-.*.W *.-.-.-.-.-.) ..-.-.=.c M u.3.e.8.u.a = 7.",
"5.& s.n.9.9.e.9.j Z ;.-.-._ ..-.-.-.-..._ 1.-.-.-.-.-.*.W @.-.-.-.-.-.' ..-.-.=.c M u.3.u.e.9.a * 9.",
"5.% g.S.f.d.u.9.j b -.-.=._ ..1.-.-.-.' _ -.-.-.-.-.-.*.W +.-.-.-.-.-.' ..-.-.=.h M d.f.i.u.u.a * e.",
"7.% s.{.}.D.u.9.j C -.-.-._ o.-.-.-.-...' -.-.-.-.-.-.*.W @.-.-.-.-.-._ ..-.-.=.c M Z.}.J.u.9.a * 8.",
"5.& s.`.W.u.5 V k C -.-.-._ ..-.-.-.-...' -.-.-.-.-.-.*.W *.-.-.-.-.-._ ..-.-.=.c M x._.f.6 M a * 8.",
"f $ g.J.9.3 O N j C >.-.-._ X.-.-.-.-.' ' 1.<.$.$.%.-.=.W &.-.-.-.-.-._ ' -.-.=.c M d.s.6 O h a % k ",
"f + g.N.V 3 3 3.j Z -.-.-._ o.-.-.-.-.' ( $. .b.j. .[ $.E &.-.-.-.-.-._ ..-.-.=.c M e.5.5 5 k u $ j ",
"5.% g.n.9.9.9.9.j Z -.-.-._ ` -.1.-.-.{ ~ 5.g ).'.r.s S Q &.-.-.-.-.-.' ..-.-.=.c M 9.r.9.9.M * = 9.",
"5.% a.n.e.r.8.r.j C -.-.-._ o.-.-.1.-.#.9.5.h D.j.m j u.w.%.-.1.-.-.-._ ..-.-.=.c M e.e.e.e.8.u * 9.",
"5.% m u.e.e.e.u.j C -.-.-._ ..-.-.-.y.w.9.0.L v h x U 6.9.a.%.1.-.-.-.' { -.-.=.c M u.8.r.r.M * * 8.",
"5.% 9.k.9.9.e.9.j C -.-.-._ X.-.-.,.M.x.0.^ o.[ [ { { ~ 6.b.z.1.-.-.-._ ' -.-.=.c n 9.9.e.e.k * * 8.",
"5.% 6.S.S.k.u.9.j C -.-.-._ ..1.-.,.R.H.l.+.-.1.1.1.*.} c.Y.z.1.-.-.-.' ..-.-.=.c B j.S.b.e.j * = 9.",
"5.% f E.|.A.3.3.k C -.-.-._ ..-.-.,.K.^.L.@.-.-.-.-.=.:.Y.G.z.1.-.-.=.' ..-.<.=.c V j.|.H.5.d * * 8.",
"5.% g b.S.V % M n C -.-.-._ ..-.1.=.~ j.M.( *.-.-.-.+.| F.g.$.-.-.-.-.` ..-.-.=.c n k.H.5.& = = = 9.",
"5.% g p.V % + M j C -.-.=._ ..-.1.=.Z 2.t.y.( *.,.o.^ 0.u.k ! -.-.-.=._ ..-.-.-.c M u.3.& o - & = 7.",
"5.% k u.3.M n 3.j C <.-.-._ X.1.1.=.P x M 9.y.K.R.M.0.7.f b { -.-.-.-._ ..-.-.=.c M u.3.n m s & = e.",
"5.$ g u.3.u.u.8.j C ;.-.-.' ..-.<.-.+.b d M e.v.v.h.7.k i / *.-.-.-.;._ ' -.-.=.c M 8.u.9.M M 5 * 7.",
"5.% j u.u.8.u.u.j C -.-.-._ ..1.1.-.1./ l x S S S S A l z o.-.-.-.-.-.' ..-.-.=.v M r.8.V j B 6 * e.",
"m @ f 7.8.V 8.3.g C -.-.-.) ' -.,.1.-._ Y W W W ) E E E P +.-.-.-.-.-.) ' 1.-.=.c n 7.2.s 2.j & $ 2.",
"+ O 3 d a a d d u C =.=.<.L Q <.,.,.,.I L >.>.>.>.>.>.:.z } <.<.<.;.<.L Q ;.<.>.c 8 d d u d u = O # ",
"X j 3.3.3.3.3.3.5.g.P.l.U.P.P.T.T.T.T.P.P.U.T.T.T.T.T.I.F.I.T.T.T.T.T.F.P.T.T.T.p.j f 3.3.3.2.j * O ",
"+ 2.r.r.e.i.E.S.g.f.k.u.j.v.Q.}.^.n.W.(.(.(.`.|.].H.v.k.k.p.h.H.~.v.r.r.e.e.e.e.b.p.M k k k k f - O ",
"+ 2.r.e.e.h.[.W.8.n 9.9.8.8.S.'.b.m C.(./.^.D.[.Q.u.n 8.8.M k r.b.2.- - u 7 7 u g.p.f - 8 8 8 8 - O ",
"O 2.9.e.e.u.D.9.= 3 u.9.r.8.x.b.k % g.W.J.D.p.D.p.3 - 8.r.7.k k 2.- O = u 7 7 8 N f & O 8 8 8 8 - O ",
"+ V 8.8.8.8.7.- O 3 8.8.8.8.9.m # + k r.9.8.7.9.5 o - 7.7.f M 2.- # . = u 7 u 8 u - X # 8 8 8 8 - O ",
"o u d d d d u 8 5 8 d d d d d u - 5 u f f u d d u - u u d u u u u - 6 7 8 8 8 8 7 6 - 4 8 8 8 8 - O ",
"  # $ $ $ # $ $ $ $ $ # # $ $ $ $ $ $ $ $ $ $ $ $ $ $ $ # $ $ $ $ $ $ $ $ $ $ $ # $ & @ $ $ $ $ + . ",
"                                                                                            .     . ",
"$ X                                                                                             . * "
};
