/* XPM */
static char *ecbf20d1915d4c41a508d9823dd70f3f5clMK2jwtRwrcLSH[] = {
/* columns rows colors chars-per-pixel */
"50 50 238 2 ",
"   c #0D0005",
".  c #1C0201",
"X  c #1A0607",
"o  c #0D0E1C",
"O  c #180D14",
"+  c #1A141B",
"@  c #270701",
"#  c #271312",
"$  c #391A16",
"%  c #370E0B",
"&  c #34201C",
"*  c #191927",
"=  c #1D1E33",
"-  c #0F1225",
";  c #261C25",
":  c #1D2232",
">  c #1E242D",
",  c #2A2C2E",
"<  c #25242C",
"1  c #392928",
"2  c #2B352C",
"3  c #2E3A2D",
"4  c #37392E",
"5  c #232434",
"6  c #252B35",
"7  c #2A2C34",
"8  c #24253A",
"9  c #272C39",
"0  c #2A2D3B",
"q  c #292636",
"w  c #322C38",
"e  c #2D3234",
"r  c #2F3934",
"t  c #2C333C",
"y  c #273234",
"u  c #333435",
"i  c #333C33",
"p  c #3B3B35",
"a  c #32353C",
"s  c #343A3D",
"d  c #3B3D3C",
"f  c #3B3439",
"g  c #481C15",
"h  c #45120E",
"j  c #52241D",
"k  c #4D2117",
"l  c #45292A",
"z  c #562A28",
"x  c #472E32",
"c  c #433D3D",
"v  c #473638",
"b  c #563839",
"n  c #46322C",
"m  c #693937",
"M  c #6E3731",
"N  c #36413D",
"B  c #3B433D",
"V  c #374236",
"C  c #38412E",
"Z  c #47463B",
"A  c #4D503C",
"S  c #54593D",
"D  c #5C433E",
"F  c #73473C",
"G  c #65443B",
"H  c #5A623D",
"J  c #2B2C42",
"K  c #272E40",
"L  c #2F3541",
"P  c #2E3B46",
"I  c #323443",
"U  c #343B43",
"Y  c #3A3D44",
"T  c #343549",
"R  c #353B4B",
"E  c #3A3C4C",
"W  c #393746",
"Q  c #3C3C52",
"!  c #383852",
"~  c #4B3C44",
"^  c #433D48",
"/  c #513C41",
"(  c #593F42",
")  c #413E5B",
"_  c #703F45",
"`  c #364445",
"'  c #3B4245",
"]  c #3D4945",
"[  c #3C434B",
"{  c #364B4B",
"}  c #3B4B4C",
"|  c #354549",
" . c #3A504E",
".. c #3D4353",
"X. c #3D4B51",
"o. c #3B4858",
"O. c #3D5051",
"+. c #3F5261",
"@. c #444442",
"#. c #434B45",
"$. c #42454C",
"%. c #424A4D",
"&. c #4B4B4C",
"*. c #4C4348",
"=. c #544B4D",
"-. c #5A4647",
";. c #49524B",
":. c #555A49",
">. c #424354",
",. c #434B53",
"<. c #494D54",
"1. c #44445B",
"2. c #454B5A",
"3. c #4B4C5B",
"4. c #4B4756",
"5. c #544D55",
"6. c #564C55",
"7. c #445254",
"8. c #4B5255",
"9. c #45525C",
"0. c #4E555A",
"q. c #4C545B",
"w. c #4D5A5C",
"e. c #4F5857",
"r. c #535655",
"t. c #51535A",
"y. c #525B5C",
"u. c #5A5658",
"i. c #664A48",
"p. c #784A46",
"a. c #67585A",
"s. c #775958",
"d. c #73504A",
"f. c #5D6546",
"g. c #576159",
"h. c #656B4C",
"j. c #6B724E",
"k. c #6B6C5C",
"l. c #666856",
"z. c #6D7452",
"x. c #6E725A",
"c. c #737A55",
"v. c #747B58",
"b. c #767A59",
"n. c #7F605D",
"m. c #4B4C62",
"M. c #4C5363",
"N. c #4B5964",
"B. c #4C5D6B",
"V. c #545C63",
"C. c #555C6A",
"Z. c #5A5C6B",
"A. c #565863",
"S. c #665C63",
"D. c #556062",
"F. c #5C6563",
"G. c #5B636C",
"H. c #56626E",
"J. c #5C6573",
"K. c #5F6973",
"L. c #4E606E",
"P. c #646569",
"I. c #796868",
"U. c #646B74",
"Y. c #656A7B",
"T. c #696B77",
"R. c #746971",
"E. c #6C737C",
"W. c #6B7278",
"Q. c #72757D",
"!. c #747863",
"~. c #86564A",
"^. c #805656",
"/. c #814741",
"(. c #97645A",
"). c #856D59",
"_. c #866969",
"`. c #986B69",
"'. c #8A736B",
"]. c #987366",
"[. c #897879",
"{. c #937C77",
"}. c #A4786E",
"|. c #A57A76",
" X c #B27F73",
".X c #8E8E72",
"XX c #A9847A",
"oX c #B7877A",
"OX c #767884",
"+X c #6D7580",
"@X c #AF7E84",
"#X c #7C808C",
"$X c #87848A",
"%X c #858B96",
"&X c #948D90",
"*X c #A88884",
"=X c #B58984",
"-X c #BC9389",
";X c #BA9794",
":X c #A4938D",
">X c #A6AC8C",
",X c #999BAB",
"<X c #878CA0",
"1X c #A49CA5",
"2X c #A6A9B6",
"3X c #AEACB6",
"4X c #98A0AB",
"5X c #C58D83",
"6X c #C79588",
"7X c #C59E96",
"8X c #D59C92",
"9X c #CBA49B",
"0X c #D6A798",
"qX c #CCA8A4",
"wX c #D2ABA5",
"eX c #DBB2A9",
"rX c #DFBAB2",
"tX c #E7B7AC",
"yX c #F3C1B6",
"uX c #ACB2C6",
"iX c #B2B3C6",
"pX c #B5BACD",
"aX c #BABCCC",
"sX c #B6B8C6",
"dX c #BCBED2",
"fX c #BFC2CE",
"gX c #BEC2D4",
"hX c #C2C3D5",
"jX c #C2C6D9",
"kX c #CACBDD",
"lX c #C6C9DA",
"zX c #CFD1DD",
"xX c #D0D2DF",
"cX c #CFD1E3",
"vX c #DADCEA",
"bX c #D1CFE4",
"nX c #DFE1F0",
"mX c #E9EBF6",
/* pixels */
"I U P U U R ` R ..U t L ` o.} [ %.' ' #.8.r.r.&.F.y.8.&.8.r.e.r.,.,.&.,.0.0.q.,.0.0.0.q.0.w.A.G.V.V.",
"t t L U U U R U [ U t L ' >...' Y d s ' <.y.r.8.8.8.0.r.y.g.y.,.0.q.q.8.q.w.0.<.' ,.<.8.<.0.t.V.B.V.",
"t t L t L U U U U L y t U [ [ R U s a Y %.8.8.,.%.&.8.0.V.V.y.<.y.0.8.,.q.8.0.0.Y ,.w.A.V.y.0.M.w.N.",
"t t t L t I P U L t 9 0 L U R U ` s s U ' [ [ ` 8.,.%.,.<.0.y.V.q.,.$.[ >.8.q.8.$.,.0.V.A.w.0.w.9.M.",
"t L L s U U U R t t y 9 t L L U U U L U ` U U U 2.,.,.} %.,.w.V.%.[ Y ' %.,.q.0.,.,.,.,.%.$.%.,.N.N.",
"t t L P U U U U P t t y y t t t t t L L P U ` U U [ ,.9.<.,.,.o.,.[ [ [ ,.<.<.q.8.8.<.%.[ [ %.2.B.L.",
"t t t L L L P U P L L t 0 y t t t t L L L U U R 0 U [ >.,...>.,.[ [ [ [ [ ,.} [ <.,.,.,.%.,.8.V.N.B.",
"y t t t t L L L R U L 0 9 9 9 t U I U U I t t I L L W W U [ 3.V.[ [ ' U ' Y U e ' [ [ [ [ %.,.9.+.+.",
"9 y 9 y t L t L > P L : t t 6 6 W W W ^ 4.3.t.5.$.4.>.W I Y ^ I U e U [ U s I ' [ s t U [ ,.,.w.o.o.",
"9 9 0 0 t t L L y | U > 0 y : 9 < W 6.A.A.t.5.6.5.t.5.*.~ $.=.<.U e s Y U U s [ [ U s [ [ U [ [ | P ",
"9 9 0 t t t L t 9 [ P 6 9 9 > 0 7 ~ S.S.6.-.) 6.u.6.4.4.~ ~ 6.A.Y s s [ [ U U ' ' U ' $.[ s U [ [ | ",
"t 9 y 0 0 t t L 9 ` t 6 y 6 6 f S.a.a.6.~ ~ ~ -.-.~ ~ / ~ / 6.S.$.U U ' [ U ' ' U a U %.,.[ U U R P ",
"t 9 t t 0 t t t 9 L t 6 9 6 9 $.R.a./ x b / / x x x x v / / ( u.$.Y s U ' ' U ' ' t e U ,.[ U s t } ",
"t t 0 0 t t t 0 6 L 9 6 9 6 0 <.( v l b ( -.v l 1 l x b ( i.( v &.U t U ' Y U ` ` t 9 a [ U s s u.W.",
"t 0 t t 9 0 t 0 y U 9 6 9 > y r.& b a._._._.s.6./ d.s.a._.`.s.l &.U t U U U U U U s r U a e ' 3.$X$X",
"y t t y t y y t t U t 6 7 > 9 5.x s.;XqX1X@X@X*X_.@X*X*X;X3X@X( =.s 7 e d U t s t t [ Y e a t.W.1X$X",
"^ d f ^ $.#.Y u u u 7 < + + f Z d.`.qXeX0XwXwX;X;XqX9X;X;X0X;Xn.=.~ , , , e s %.s U s t t E 5.F.Q.W.",
"p B @.u.u.a.u.&.^ Z &.*.@.p f n _ |.qXeX0XtXrXrXrXeXwX0X9X9X-X_.i.c v c @.@.Y ] y y t y 7 t E &.F.D.",
"4 4 Z :.k.!.k.l.;.:.l.k.k.:.;.Z p.=X7X=XXX.XXX6X9XXX].].].XX=XXXi.@.v @.&.$.d s s ` [ ` a a Y $.;.B ",
"A A S :.k.x.x.z.h.h.h.k.x.x.x.j.F -X=Xp.M k h /.-Xd.k g j p.}.=Xa.=.c p u 2 e ` 7.8.8.} Y Y E ,. .] ",
".X.Xh.h.j.c.c.c.z.j.h.h.c.v.v.'.F oXXXF k h k ~.tX~.j h k F (.oXI.a.r.@.3 , t ] w.w.,.' L s E &.e.e.",
">X.Xc.H h.j.z.c.b.c.b.b.v.v.v.b.n.-XoX(.~././.oXyXoX~.~.~.}.oXXX'.R.P.l.&.s s ] w.7.X.` t I $.3.e.:.",
">X.Xc.H S H h.j.z.c.b.c.z.z.c.'.).5X0X6XoXoXoXoXtX5XoXoX6X0X0XXX{.R.a.r.&.] ` ` 7.7.7.[ ` ` 2.y.e.e.",
">X.Xz.H :.f.z.x.h.h.h.h.f.f.v..X.XoX0XtX8X0XtX8XyX8X6X0X0XtXwXXX&XP.Z p B ' ] { ` { } ] U [ $.0.F.g.",
"h.f.:.:.:.:.f.:.A Z A A B C :..X).XX8XeX8X5X5X5X8X5X5X XoX9X0X*X:Xl.u e N ' N { } | } } } [ $.q.F.F.",
"g.7.;.@.#.;.;.;.#.B B ] V 3 #.k.=XXX=X7X5X X`././.M M (.}.].XXXX[.r.u d #.] { ] } | | } } [ X.0.K.F.",
"] ] N N ] ] ] ] ] N V ` V y s &..X).@X*X/._ _ h h @ h z G ~.'..Xa.@.s #.;.] { { { { { } ..[ ,.q.F.P.",
"] ] ` N [ #.%.%.[ N s ` N r s Z -.G |.@Xj j _ M M M M g g s.{.n.Z c d #.%.] `  .{ { { X.X.| ,.w.F.g.",
"` N N N ] ] ] ] N N r N s s i B 1 n '.{.x _ @X`.@X@X=Xs.b i.l.D c c ' ] ] N {  . .{ {  .X.| ,.w.F.F.",
"i r r r N B B N r y r r i i i i c 1 D i.z s.@X`._ p.`.|.s.1 1 4 Z ' Z B B N `  . .{ {  .X.} X.N.F.F.",
"r 3 3 3 V V V C 2 C C 3 2 2 3 i p 1 n & h _ ^._ h % b ^.D # & Z @.@.B B { ]  . . .{ } O.O.} O.w.g.F.",
"C V C V B B V i C N B i 2 2 r p i ~ n # O % z / z z b x X X 1 *.Z ' ] ` ]  .O.{  . .{ O. .} 7.w.F.F.",
"e i i f p s s N d e u a s a u a W f ~ v . @ g $ % $ & $     q A.q.,...X.X...{ X.9.7.7.O.7.7.7.7.F.F.",
"s i y , 7 u u a s U a Y U I a 0 4.w ^ 6.1 . . @ g @ @ X + * < 0 A.M.o...| X.X.9.w.9.7.9.7.7.7.7.D.g.",
"u e , 2 s ' $.' Y I a 7 0 E m.Z.3.I f S.a.$   @ @ . X X # ; ; = C.K.H.M.,.9.X.| 7.,.7.7.7.7.e.e.w.w.",
", e u Y ' Y f u 7 a Y E 4.P.OXOX4.E w u.[.i.$ l @ # 1 1 ; + = I ..L.K.L.L.J.L.X.X.} X.X.7.w.w.w.w.w.",
"s s s s 7 < 7 7 I 4.P.Y.Q.OXT.C.Q >.w v I.[.s.i.D D -.v ; o * I : R m.N.L.Y.E.U.q.w.9.q.w.w.N.g.D.D.",
"f s e 7 7 s <.A.E.OX+XP.Z.Z.A.E Y 4.w ; 6.{.[.s.s.b 1 $ < ; < 8 K P ! ..o.9.J.Y.K.K.J.F.D.V.D.N.D.D.",
"s 7 < u &.P.Q.OXOXOXA.E E 4.1.T T I q ; f [.:X'.I.v O O ; q 7 5 ! ! | o...P ..C.Y.U.U.G.G.D.D.V.D.D.",
"Y e , ' G.W.U.A.Y >.>.E 3.Z.>.= I 5 q q f [.1X[.&Xa.p < < q 5 5 K : ! L.C.R R C.H.H.H.V.C.D.H.G.D.D.",
"U Y u Y Y U.[ 3.4.W I Q >.E I I = W q * ^ 6.R.1X%X@XR.* * I * E 8 K o.m.m.! R >.V.9.9.U.2XU.[ G.K.K.",
"Y e P.%X$.3.>.3.2.W I >.1.Q T T 5 I 5 < w w 4.$X2X1X&X^ ; I 5 E 8 J ! m.m.R T E m.C.4.M.aX4XQ.C.E.E.",
"7 $.3XaX7 E 3.E 2.T T 1.m.Q T T J 0 9 J 5 o w OXsX2X3XOXI I I I J J ! m.2...! ! 1.C.^ T kXmX2XZ.Y.E.",
"a %XmX2Xo 4.A.5 >.I T 3.m.E J ! I 8 q T 5 o E ,XiX,XpX,XE q >.J J T ! ) m.m.) E >.M.J 5 hXmXlX#XK.K.",
"T.zXmX$X- 3.[ I >.J J 1.1.J J Q T : K T 8 8 +XuXuX,XdXpX1.5 1.8 J ! ) ) m.m.) E 3.1.q q sXvXkXsX+XW.",
"sXnXcX$XI ^ q M.) 0 J >.1.J J ) ! 8 K K = o.#XpXpX2XjXgXm.- >.5 J ! ) +.) 1.1.) m.Q J E sXhXlXnX%XOX",
"vXxXlX,XI T I m.1.0 J 1.Q J J m.J K J 8 = +XuXuXdXpXgXjXZ.- T 5 8 ! ) ) ) ) ) ^ 1.T 8 ) lXfXfXnX2X%X",
"kXaXnX3X* ! 3.I 3.J J ) ) J J m.K K ! = K OXkXuXpXpXdXgXU.- T 8 = ! ) ) ! ! ) ) T J q 3.bXkXaXkXhX,X",
"kXgXhXuXT J Q Q T J 5 Q Q 8 Q ) I R q 8 >.iXpXpXjXkXbXdXZ.= E I J ) ) ) m.m.Q Q Q J 8 Y.kXiXhXpXdX3X",
"lXdXhXiXJ J Q E ! I 5 ! Q 5 T ) T ! 0 5 >.iXpXaXhXkXbXaXZ.= ! I J ! ) ) Q m.m.1.! J J Y.kXiXhXpXbXdX"
};
