/* XPM */
static char *_337e07c19ed488ff10dca6ff74308d8tByaxOEQbICHDAo1[] = {
/* columns rows colors chars-per-pixel */
"50 50 189 2 ",
"   c #26252A",
".  c #28272C",
"X  c #2B2A2F",
"o  c #2B2A30",
"O  c #2C2B30",
"+  c #2C2B33",
"@  c #2D2C31",
"#  c #2E2D32",
"$  c #2E2D33",
"%  c #2F2E33",
"&  c #2D2C34",
"*  c #2E2D35",
"=  c #2F2E34",
"-  c #2F2E36",
";  c #302F34",
":  c #302F35",
">  c #302F37",
",  c #313035",
"<  c #313036",
"1  c #323136",
"2  c #323137",
"3  c #333237",
"4  c #313038",
"5  c #323139",
"6  c #333238",
"7  c #33323A",
"8  c #343338",
"9  c #343339",
"0  c #34333B",
"q  c #353439",
"w  c #35343A",
"e  c #36353A",
"r  c #36353B",
"t  c #37363B",
"y  c #35343C",
"u  c #36353D",
"i  c #37363C",
"p  c #37363E",
"a  c #38373C",
"s  c #38373D",
"d  c #38373F",
"f  c #39383D",
"g  c #39383E",
"h  c #3A393E",
"j  c #393840",
"k  c #3A3941",
"l  c #383B42",
"z  c #3B3A42",
"x  c #3C3B40",
"c  c #3C3B41",
"v  c #3C3B43",
"b  c #3D3C41",
"n  c #3D3C42",
"m  c #3E3D43",
"M  c #3F3E43",
"N  c #3A3D44",
"B  c #3B3E45",
"V  c #3D3C44",
"C  c #3E3D45",
"Z  c #3F3E44",
"A  c #3C3F46",
"S  c #3F3E46",
"D  c #403F45",
"F  c #403F47",
"G  c #3D4047",
"H  c #3E4148",
"J  c #3F4249",
"K  c #414045",
"L  c #414046",
"P  c #424146",
"I  c #424147",
"U  c #434247",
"Y  c #414048",
"T  c #424149",
"R  c #434248",
"E  c #40434A",
"W  c #43424A",
"Q  c #444348",
"!  c #444349",
"~  c #44434B",
"^  c #41444B",
"/  c #454449",
"(  c #45444A",
")  c #46454A",
"_  c #46454B",
"`  c #47464B",
"'  c #42454C",
"]  c #43464D",
"[  c #45444C",
"{  c #45454D",
"}  c #46454D",
"|  c #47464C",
" . c #44474E",
".. c #46464E",
"X. c #47464E",
"o. c #48474C",
"O. c #48474D",
"+. c #48474F",
"@. c #45484F",
"#. c #49484D",
"$. c #49484E",
"%. c #4A494E",
"&. c #4A494F",
"*. c #4B4A4F",
"=. c #464950",
"-. c #474A51",
";. c #484850",
":. c #494850",
">. c #494951",
",. c #4A4951",
"<. c #4B4A50",
"1. c #484B52",
"2. c #4B4A52",
"3. c #4B4B53",
"4. c #4C4B50",
"5. c #4C4B51",
"6. c #4C4B53",
"7. c #494C53",
"8. c #4D4C51",
"9. c #4D4C52",
"0. c #4E4D52",
"q. c #4E4D53",
"w. c #4F4E53",
"e. c #4A4D54",
"r. c #4B4E55",
"t. c #4C4C54",
"y. c #4D4C54",
"u. c #4D4D55",
"i. c #4E4D55",
"p. c #4F4E54",
"a. c #4C4F56",
"s. c #4F4E56",
"d. c #4F4F57",
"f. c #504F54",
"g. c #504F55",
"h. c #504F57",
"j. c #4D5057",
"k. c #4E5158",
"l. c #4F5259",
"z. c #515055",
"x. c #515056",
"c. c #525156",
"v. c #525157",
"b. c #535257",
"n. c #505058",
"m. c #515058",
"M. c #525159",
"N. c #535258",
"B. c #50535A",
"V. c #53525A",
"C. c #545358",
"Z. c #545359",
"A. c #54535B",
"S. c #51545B",
"D. c #555459",
"F. c #55545A",
"G. c #56555A",
"H. c #56555B",
"J. c #57565B",
"K. c #52555C",
"L. c #53565D",
"P. c #55545C",
"I. c #56555D",
"U. c #57565C",
"Y. c #57565E",
"T. c #58575C",
"R. c #58575D",
"E. c #58575F",
"W. c #55585F",
"Q. c #59585E",
"!. c #5A595E",
"~. c #5A595F",
"^. c #5B5A5F",
"/. c #565960",
"(. c #595860",
"). c #5A5961",
"_. c #5B5A62",
"`. c #5C5B60",
"'. c #5C5B63",
"]. c #595C63",
"[. c #5D5C61",
"{. c #5E5D62",
"}. c #5E5D63",
"|. c #5F5E63",
" X c #5D5C64",
".X c #605F65",
"XX c #616065",
"oX c #636268",
"OX c #6B6A6F",
/* pixels */
"l N H E ^ H H N G H H E E H H G E E W W F } } } F 2.:.F F F F } W f.b.b.4.` *.f.{.b.#.*.J.^.b.*.P P ",
"A H H ^ ' ^ ^ ^ E ^  . . . .^ ^ W W W W } } } +.:.2.2.+.F } } +.D %.h.f.#.U ) *.C.*.Q Q 4.f.*.Q Q Q ",
"' ' ^ ^ ' '  .=.' @.=.=.=.=. .' } } _ _ +.:.:.:.6.6.s.6.:._ :.y.` *.h.f.#.Q Q *.*.#.` Q Q Q ) ` *.#.",
"' ' H H H ' =.=. .=.=.1.1.=.@. ._ _ :.:.:.:.:.6.6.6.6.s.2._ <.h.f.f.C.f.*.` #.4.#.f.f.4.) Q #.4.*.#.",
"' ^ H G H E ' =. . .@.=.=.@. . .:.2.2.2.6.6.6.6.s.:.:.m.6.} :.M.*.f.f.*.#.#.#.*.4.f.b.f.#.Q *.b.#.*.",
"H H H H H ^ ' ' '  .=.=.=.=. .' 6.6.6.6.6.s.s.s.m._ :.m.m.} :.R.%.#.` U Q ` #.%.*.f.f.4.` ) #.f.*.*.",
"E E ' '  . . .' =.1.7.e.e.e.1.=.6.6.s.s.m.m.m.m.V.:.2.(.P.:.6..X*.%.` #.*.f.f.f.4.0.4.*.#.#.#.4.f.f.",
"E ' @.1.7.1.@.@.e.e.a.j.j.a.e.e.s.s.s.m.m.m.m.V.(.6.6._.(.<.h..XC.f.f.f.b.J.^.[.C.f.f.4.4.0.0.4.b.f.",
"7.7.7.7.7.7.7.7.=.' @.j.k.j.k./.(.V.i.<.:.:.<.h.s.m.V.P.(.(.P.P.h.f.f.f.b.T.J.C.4.#.*.4.4.) 4.T.b.b.",
"7.7.7.7.7.7.7.7.e.' @.e.j.=.1.k.m.m.s.6.h.M.(._.6.6.s.m.m.m.m.h.G.h.f.f.b.J.b.f.f.#.#.*.) D ` h.f.C.",
"7.7.7.7.7.7.7.7.e.@.@.e.e. . .e.V.m.m.s.s.V.(._.6.6.m.m.M.m.m.h.J.C.f.f.J.J.C.f.T.f.0.f.0.4.C..X*.0.",
"7.7.7.7.7.7.7.7.a.@.@.a.k.=.1.k.P.V.m.6.6.6.6.h.V.V.P.P.I.P.F.h.G.C.f.f.C.f.f.*.J.b.f.f.b.b.[.OX#.4.",
"7.7.7.7.7.7.7.7.e.@.=.B.S.j.k./.P.P.m.m.h.6.6.6.M.F.P.I.I.F.M.M.b.f.f.f.f.f.4.#.f.4.#.4.%.` f.[.#.#.",
"7.7.7.7.7.7.7.7.e.@.=.S.L.B.L.].m.M.V.P.I.I.(.(.m.m.m.M.m.h.f.y.h.f.4.4.f.f.4.*.T.b.f.b.*.W ` h.*.*.",
"7.7.7.7.7.7.7.7.a.=.1.k.S.j.k.W.m.M.V.(.(.(.(.(.m.m.M.M.m.h.y.<.C.f.f.f.b.J.b.C.T.b.J.T.G.f.f.G.f.4.",
"7.7.7.7.7.7.7.7.k.1.1.k.k.1.1.k.P.V.P.M.M.h.h.6.I.P.I.I.P.M.h.h.G.C.C.b.!.^.T.J.Q Q *.J.G.f.h.!.b.f.",
"1.1.1.7.1.7.r.r.J =. .1.l./.l.J V.P.V.P.V.P.V.P.(.P.M.V.m.V.P.P.M.<.s.(.(.h.6.M.h.y.h.f.M.P.(.R..X^.",
"1.1.1.7.7.r.r.r.1.r.r.7.l././.1.m.s.m.s.m.s.m.s.(.(.(.P.P.P.P.(.(.s.V._._.M.s.P.y.<.<.:.<.<.6.h.f.f.",
";.=.1.7.7.r.r.r.1.l./.r.1.k.l.k.s.m.s.m.s.m.s.m.(.(.P.P.P.P.(.(.(.V.(. X X(.P.(.I.P.P.M.h.h.y.y.W U ",
"=.1.1.1.1.r.r.r. .l.K.1.J  .r.r.P.V.P.V.P.V.P.V.V.P.V.P.P.P.(.(.(.P.(._._.I.I.(.(.(.(.(.F.M.h.f.%.#.",
"1.=.1.1.1.r.r.r. .k.l.1.'  .r.r.V.P.V.P.V.P.V.P.m.m.m.m.m.V.P.(.V.(.V.V.V.P.I.P.6.h.s.m.m.s.h.<.!.G.",
"=.1.1.1.1.r.r.r.1.l./.r.7.r.l.l.m.s.m.s.m.s.m.s.i.s.6.6.s.m.V.P.m.V.V.6.6.V.P.m.6.6.M.P.I.P.M.M..X.X",
"1.1.1.e.1.r.r.r.1.r.r.r.l././.1.s.m.s.m.s.m.s.m.s.s.s.s.m.M.P.(.s.(.V.,.2.V.P.s.M.P.(._. X_.(.I.!.J.",
"=.1.1.1.1.r.r.r.J  . .1.l./.l.J P.V.P.V.P.V.P.V.m.m.m.m.V.(.(.(.s.(.P.<.2.P.(.s.6.m.V.(.I.V.s.<.f.*.",
"1.1.1.1.r.e.r.r.1.1.7.k.l.l.r.k.(.P.m.m.V.V.m.6.P.m.s.m.V.P.M.m.2.s.m.m.s.s.m.P.s.m.m.s.m.m.m.h.%.y.",
" . . .1.=.1.=.1.r.r.r.r.r.1.1. .M.m.6.6.m.m.s.6.P.V.m.M.P.P.V.m.6.m.P.V.m.m.V.(.P.V.M.m.h.6.<.<.%.%.",
"J J J J J  . . .r.r.r.r.1.1. . .6.2.:.2.s.m.i.6.V.m.6.s.V.P.M.s.s.V.P.P.M.V.V.(.I.I.P.m.6.2.+._ ` ` ",
"J J J  . . . .J J  . .1.1.r.1.1.6.2.:.2.s.m.m.6.s.6.2.2.6.m.6.,.s.M.V.V.s.s.V.P.P.P.M.m.6.2.<._ %.+.",
" .J  . . . .=.=.' ] ;.1.7.7.7.7.i.6.2.6.m.V.V.m.m.s.6.6.m.s.s.2.6.s.m.s.6.2.6.s.h.s.h.6.6.6.6.<.*.*.",
"=. . .=.1.1.1.1.7.7.u.1.7.-. .] m.6.6.i.m.V.m.i.(.V.m.M.P.(.P.m.2.s.m.h.2.:.2.2.6.6.h.6.h.6.6.h.f.*.",
" .=. .;.1.1.1.1.r.k.k.u.r.1.;. .m.6.2.2.6.s.2.:.m.s.6.s.V.P.m.s.s.s.V.s.6.2.<.h.h.h.6.6.2.2.%.%.%.%.",
" . .;. .;. .-.1.:.-.7.k.k.k.m.m.s.6.:.:.2.2.:.} 6.:.+.+.2.6.:.+.m.V.V.M.s.6.2.h.M.M.s.h.<.:._ W +.` ",
";...:.,.,.:.+...2.6.i.i.i.6.,.:.+.:.2.s.s.6.6.6.V.m.s.s.V.V.m.6.(.+.F P.(.+.F :.:.2.:.:.+.+.+.} %.%.",
"' ..;.:.:.+...} } +.:.2.6.6.2.,.+.+.2.6.s.6.6.2.s.6.2.2.s.s.6.2.V.2.+.s.V.2.} } :.:.:.:.+.} _ W %.%.",
"} ....:..._ ..} F F :.,.6.i.i.i.+.+.:.2.6.6.2.2.2.+.} +.2.2.:.+.2.s.2.:.2.6.:.F +.+.+.+._ } } F ` #.",
"F F } } } } } } } +.:.6.i.i.i.i.} +.+.:.2.2.2.:.:.+.} } :.2.+.} F m.m.F F 6.:.j +.} } F F } W W U U ",
"F } } } } F F F F } +.....} } F } } +.+.:.+.+...:.+.+.+.:.2.:.} F s.m.F F :.+.z } _ W } } F } F D D ",
"F F F } } F F F F C F F F C z z F } } +.+.} +.} +.+.F } +.2.+.} F :.6.F F F F C F } F F F F F F h x ",
"F F F F F } F F z C C F F C C C F F F } } } } } } F F F } +.F F F F } :.F j j F F } F F F F F D D D ",
"F F F F F F F C C C F } +.+.+.+.F } F } } } +.F F F F F F F F F +.C F 2.+.7 7 } F F F F D F v D D U ",
"W F j k F F F j :.F F 2.i.:.F +.F F } _ +.:.:.2.C j k +._ F v } _ F z F _ +.F 5 5 j u j u k _ h.v h ",
"F F k k v F C C F C C ..:.F F F F F F F F } } } F z C +.+.C k F F C j z } _ F k z C C F C F <.h.h D ",
"C C C k j k C F F j j C F C j z C C F F F F F F +.F } _ } C k C F z j j F } F F C j 0 0 s F F F f a ",
"u k F C u 0 F F F j 5 z F j j j F C C C F C z C } F F F F F F F F C 0 j z F F F k 0 > > u k s 5 0 8 ",
"0 k C k 0 0 v F F u 0 k C j j z F F C C C C C C C F F z F F F F F F j j j k k C F z u j C F j 0 r 8 ",
"0 u u u u u k F F j 7 k C j j z z z C z C C z C j z z j j F } F F F j j j u u u z u 0 0 u u 5 > f e ",
"r 5 5 5 u v k k F u > u j j j j j j j j j k C z j C z 7 5 C F k j k z z k j u u > > 5 5 > o O > 8 : ",
"u > > > s v C s F 0 > 5 j 7 0 j > > 5 0 u j j z j F C > > s k 5 > 5 j k k f k s > 0 k s > ; 5 r X . ",
"0 8 8 : 8 : : ; 8 q e h f 8 ; X 0 u j u 5 > 5 0 u u 5 5 5 5 u u u r : ; ; f 8   s r : @ : f 8 . ; ; ",
"8 8 8 : : : ; ; 8 e f h e 8 ; O 0 u s u 5 > 5 0 u 0 0 5 5 0 0 u s r > ; ; e :   e e : @ 8 f 8 . ; ; "
};
