/* XPM */
static char *_78b5c16a2ae4fb4b9a1e7eaf62c3abfpemOjDiFFujQlG9o[] = {
/* columns rows colors chars-per-pixel */
"50 48 108 2 ",
"   c #1C1D2F",
".  c #1E1F31",
"X  c #211F33",
"o  c #1F2033",
"O  c #1F233A",
"+  c #222236",
"@  c #23263A",
"#  c #28223A",
"$  c #26293D",
"%  c #282C3F",
"&  c #272D41",
"*  c #292E42",
"=  c #3A2845",
"-  c #3E2A49",
";  c #2C3145",
":  c #2E3449",
">  c #30364B",
",  c #32384D",
"<  c #353D52",
"1  c #442C4B",
"2  c #4B2F4E",
"3  c #4B2F51",
"4  c #6D3D5B",
"5  c #723E5D",
"6  c #374156",
"7  c #394257",
"8  c #3C455C",
"9  c #3E485E",
"0  c #3F4A61",
"q  c #414B5E",
"w  c #7B435E",
"e  c #404B62",
"r  c #465064",
"t  c #4A5566",
"y  c #46526A",
"u  c #48566B",
"i  c #4C596D",
"p  c #525C6E",
"a  c #4E5C71",
"s  c #505D71",
"d  c #7F4560",
"f  c #536176",
"g  c #596476",
"h  c #56657A",
"j  c #56657C",
"k  c #56677C",
"l  c #5C677B",
"z  c #5D6A7B",
"x  c #5A6B7E",
"c  c #5B6C7F",
"v  c #5E6D7F",
"b  c #606A7C",
"n  c #834761",
"m  c #834562",
"M  c #874860",
"N  c #A65E67",
"B  c #AE6467",
"V  c #B16668",
"C  c #B26768",
"Z  c #B96B6A",
"A  c #BB6E69",
"S  c #5C6C80",
"D  c #5D6E82",
"F  c #5E6E82",
"G  c #5F6F82",
"H  c #5E7085",
"J  c #617285",
"K  c #617385",
"L  c #627287",
"P  c #627487",
"I  c #627388",
"U  c #637589",
"Y  c #657689",
"T  c #65778C",
"R  c #64788B",
"E  c #67788B",
"W  c #657A8D",
"Q  c #677B8F",
"!  c #687A8E",
"~  c #687C8E",
"^  c #707F8F",
"/  c #687C90",
"(  c #697C90",
")  c #697D91",
"_  c #6A7D90",
"`  c #6B7E91",
"'  c #6C8093",
"]  c #718596",
"[  c #738799",
"{  c #778B9C",
"}  c #7F8B99",
"|  c #7D8E9F",
" . c #7C909F",
".. c #7E8FA1",
"X. c #7E90A2",
"o. c #8296A6",
"O. c #8996A4",
"+. c #879BAB",
"@. c #8FA4B3",
"#. c #91A5B5",
"$. c #93A8B6",
"%. c #95AAB9",
"&. c #9AAEBC",
"*. c #9CB1BF",
"=. c #9DB2C0",
"-. c #A4B9C7",
";. c #A6BCC9",
":. c #AABFCB",
/* pixels */
"$ c ) ) Q / / / ) ! ) / / / / / / / / / / / / / / / ) T T ) T T R U y 0 s c 0 0 0 0 0 0 0 0 0 0 7 O ",
"$ c Q Q ) / / / / ) / / / / / T / / ) T ) Q / / T / G y y G S y y y e 0 e r 0 0 0 0 0 0 0 0 0 e < O ",
"@ y a a a a a i a a a a a a a a a a a a a a a a a a y 0 0 y 0 0 e 0 q q 0 0 0 0 0 0 0 0 0 0 0 0 6 @ ",
"+ 7 0 0 0 0 0 0 0 0 0 e 0 0 0 0 0 0 0 0 0 0 0 e 0 0 e e 0 0 0 0 e e q q e e 0 e 0 e e e e e 0 0 < @ ",
"O , 6 < < < < < < 6 < < < < < < < < < < < < < 6 6 < < < 6 < < < 6 , 6 7 < 7 , 7 6 < < < < < < < : . ",
"& O O O @ @ . . . O X . @ . X O . . X O X X . X X . . . O . O . + +   o   +   + . O + . @ @ O O O * ",
"S & , 8 8 < O . . . . . . . . . . . . . . . . . . . . . . . . .       + o   . . . . . @ 7 0 < : : F ",
"L * < 0 0 0 O . . . . . . . . . . . . . . . . . . . . . . . . . +         + . . . . . $ 0 0 0 , , Q ",
"L ; e S j s @ . . . . . . . . . . . . . . . . . . . . . . . . . . . . . . . . .   +   % f k l 8 , R ",
"L * a / ) F $ . . . . . . . . . . . . . . . X . . . . . . . . . . . . . . . . . o o   ; T ~ ~ r , R ",
"L ; a ) / F # . . . . . . . . . . . # X . . . . . . . . . . # O   . +   . . . .   +   ; T ~ ` r , ~ ",
"L ; a ) / F $ . . . . X . . . . . X 3 - X . . . . . . . . . 1 3 @       . . . .     X * T ) ~ e , R ",
"L ; s ) ) F $ . . . . . . . . . & 3 M 5 - . . . . . X X X 1 d w 1     + . . . .       ; E ~ ) t > ~ ",
"G ; a / ) F $ . . . . . . . . # 3 m A N 5 - X . . . . X 1 d B B M 2 #   . . . .   +   ; P ) ) e > O.",
"H : a / ) F $ . . . . . . . . # 3 m Z N 4 = X . . . . X 1 5 B V w 1 @ . . . . . . .   : P ~ ) r > O.",
"H : s ) ) F $ X . . . . . X . . X 3 m 5 = . . . . . . . . 1 5 d 1 +   . . . . . . .   ; T ) ~ r > o.",
"H ; i Q ' v %     + +   . . . . X X 3 = . . . . . . . . . . 1 1 X . . . . . . . . . . ; T ! ~ r , ~ ",
"H ; a ' ' v @ o         . . . . X . # X . . . . . . . . . . + + . . . . . . . . . . . ; E ~ ~ r , T ",
"P ; i ' ' z $   +     + . o . . . . . . . .   + . . . . . . . . . . . . . . . X . . . * P ~ ~ r , K ",
"H ; i ' ' v @ o .       +   . . . . . . . . .   . . . . . . . . . . . . . . . . . . . ; T ) ) r , Y ",
"P ; s ' ' z @   . . . . . . . . . . . . . . + .   o o o . . . . . . . . . . . . . . . ; U Q ~ r , T ",
"H ; a ' ' v @ o . . . . . . . . . . . . o . . o o     o + + + @ X & . . X @ . . . . . ; U ) ~ r , E ",
"H ; a ' ' z % . . . . . . . . . . . . . . . . .   o . + 6 $ : 6 < < & . ; , . . . . . ; U / ) r , T ",
"H % i ' ' v % . . . . . . . . . . . . . . . . . +   o o @ + + $ & & . . . & . . . . . ; U Q ! r , T ",
"a % i ' ' x @ . . . . . . . . . . . . % , , , , , , , , , , , * . . . . . @ , , + X . ; T ~ ) r * s ",
"u % i ' ' x $ . . . . . . . . . o * * 6 8 , < , , 6 7 q 0 6 < ; . . . @ @ @ , , @   . ; P ` ~ r * s ",
"H % f ' ' H $ . . . . . . . . + & 8 0 e < O $ $ @ @ $ 9 0 ; O $ # $ $ < < @ @ $ $ + . * E ~ ) r , T ",
"H : f ' ' v @ . . . . . o o o % 8 e 0 9 8 8 9 9 8 9 0 q 8 8 8 9 0 8 e e 0 8 0 < 8 * . * I ~ ~ r , T ",
"L ; s Q ' v $   o   + . . > ; % 8 q e > @ % 9 9 0 9 9 8 & O < 0 q e q ; , q 8 % @ +   ; L ~ ) r , T ",
"K ; s Q Q x $ o   o   . . $ $ + * * * @   + % ; * * * % o . @ * * % * + @ * % . . .   ; T ~ ~ r , ~ ",
"K ; s ' ' v $   o   . .     X     .   .     .             . . .   . . .     . .       ; L ~ ) t , Q ",
"K ; i ' Q H $   . . . o $ $ $ % > % $ ; , : % : , , > , , , , : > $ $ ; > > $ $ % % @ ; T ) ` e > ! ",
"K * i ' ~ G $   .   . $ 7 9 9 u x 0 0 j H c 0 H Q R H P H P H H v 0 0 k P h 0 9 9 0 , ; T ~ ) r , ~ ",
"K * s ) ~ F $ +   + $ 7 9 e 0 0 t 0 0 0 t r 0 y v k r r y y t r r 0 9 r y r 0 0 0 e , ; T ~ ~ 0 , T ",
"P ; s ` ~ F @ + +   $ 8 e e 0 0 0 0 0 9 0 0 0 0 y y 9 0 0 0 0 0 0 0 0 0 0 0 0 0 e e , ; R ) ) t , T ",
"K ; a ` ~ v $       + > 8 e 0 0 0 0 0 9 0 0 0 0 9 0 0 0 0 0 0 0 0 0 0 0 e 0 0 0 e < $ ; T ~ ~ r , ~ ",
"L * s ) ) H $ X .   . X , < < < 6 6 , 6 < , < < 6 6 < < < < , < 6 , < < < , , 6 < $   ; P ) ) e , Q ",
"L ; a / ~ F @ o . + @ @ @ + O + . . O O O $ O $ o   o O @ @ $ O O % $ O $ O O o @ +   ; P ~ ~ r , R ",
"L : p ) ~ F $   o * 8 8 8 % ; < o O 6 8 9 8 8 8 ; o % 8 8 9 8 8 9 9 8 8 9 8 6 $ < : . ; T ` ` r , ~ ",
"K * a ~ ) F $ o ; 8 0 0 e 7 8 8 6 6 8 0 0 9 q 8 8 6 8 9 0 9 0 0 9 0 9 0 0 0 0 6 q 7 > ; P ~ ~ r , R ",
"L ; i ' Q c % ; t x L | | o.} X.X.X.X.| |  .o.} } o.o.o.| | o.| | | ..X.o.|  .| K l q ; P ~ ~ r , Q ",
"P ; f ~ ' H % r H ~ ] #.-.:.*.@.#.#.-.*.&.:.:.:.&.#.+.$.;.:.;.:.:.;.%.#.@.&.-.#.[ ! p > T ~ ~ r , R ",
"K * f Q Q v % h ) ~ ~ ' $.*.o.~ ~ ~ @. . .&.&.&.| R ) ] $.&.*.&.&.%.] ~ R { #.' ~ ' i ; Y ~ ~ r , Q ",
"K ; i ' ~ H % h ) ) / / ) ) / ~ ~ ~ ' ' ~ ' ' ' ) Q ) ~ ' ) ' ' ' ' ) ~ ~ ~ ' ' ~ ~ i ; Y ~ ~ r , R ",
"K * a ) ~ c % h ) ) ~ ~ / ~ Q ~ ~ ~ Q ~ Q ~ Q Q Q ! Q Q ~ ~ ~ ~ ~ ~ ~ Q ~ ~ ~ Q Q ) i : Y ~ ~ r > R ",
"r $ ; < 6 , + > < , < , < < < < , < 6 , 6 6 > 6 < < < < , < < , , < 7 , , 6 6 , < < ; + , < < * ; i ",
"a < 8 e q q e g z b b b b t q q q q g z p q 0 9 < < t g e q s b l b z t 9 t l z z l b b l t q 7 7 f ",
"T u F ) ) ~ ' #.*.*.=.=.&.| ~ ~ Q ' #.*.+.' ) ) a a ..%.] ~ +.*.*.*.*. .Q | *.=.*.*.*.*.&.[ ~ l i ' "
};
