/* XPM */
static char *aeaeb8ababe24badf41ff60b038361eaV8XU8aDZGavOMr7n[] = {
/* columns rows colors chars-per-pixel */
"50 50 229 2 ",
"   c #270D00",
".  c #241400",
"X  c #2C1600",
"o  c #341600",
"O  c #2B2500",
"+  c #3F2700",
"@  c #1C382C",
"#  c #3F3F3F",
"$  c #452406",
"%  c #473804",
"&  c #533B00",
"*  c #593C08",
"=  c #573F1D",
"-  c #503724",
";  c #334734",
":  c #4F4F1D",
">  c #4B5B1A",
",  c #604300",
"<  c #795800",
"1  c #6E561A",
"2  c #51601F",
"3  c #464436",
"4  c #5B5926",
"5  c #755829",
"6  c #655E34",
"7  c #586827",
"8  c #5E6E2D",
"9  c #556423",
"0  c #657433",
"q  c #7E7F33",
"w  c #766E3F",
"e  c #1B3043",
"r  c #263B4C",
"t  c #333A42",
"y  c #314D41",
"u  c #39554A",
"i  c #39554A",
"p  c #2E4355",
"a  c #33485A",
"s  c #3F5465",
"d  c #494949",
"f  c #434649",
"g  c #465953",
"h  c #51555B",
"j  c #466158",
"k  c #6A664D",
"l  c #77654C",
"z  c #726554",
"x  c #696C5D",
"c  c #495768",
"v  c #575E6E",
"b  c #536172",
"n  c #6A6867",
"m  c #636A7A",
"M  c #7A7671",
"N  c #946A0C",
"B  c #A77915",
"V  c #B47600",
"C  c #947430",
"Z  c #A17F3F",
"A  c #A0742B",
"S  c #9A7D41",
"D  c #947849",
"F  c #AD7F43",
"G  c #8B7A71",
"H  c #758544",
"J  c #78836E",
"K  c #7F8B7D",
"L  c #9E820D",
"P  c #9E8012",
"I  c #A0811D",
"U  c #A38611",
"Y  c #B78F18",
"T  c #978C3C",
"R  c #BD9838",
"E  c #AD9231",
"W  c #B5A13E",
"Q  c #DB9A00",
"!  c #DDB51C",
"~  c #DDB40C",
"^  c #FDB90D",
"/  c #E9AA19",
"(  c #E6BC19",
")  c #E8AD0B",
"_  c #C49F38",
"`  c #C89E37",
"'  c #CE9B26",
"]  c #DEAE2E",
"[  c #D7B42A",
"{  c #CAA23B",
"}  c #CAAA3B",
"|  c #C6A335",
" . c #DEA73B",
".. c #DBBC38",
"X. c #CDB32C",
"o. c #E6B326",
"O. c #E7BD38",
"+. c #FABA39",
"@. c #E7C219",
"#. c #EAC41B",
"$. c #E8C013",
"%. c #FDC819",
"&. c #FFC10C",
"*. c #DCCB3A",
"=. c #D9C633",
"-. c #F8CA26",
";. c #FFD525",
":. c #ECC13F",
">. c #EAC73A",
",. c #FFC532",
"<. c #F6CC3D",
"1. c #F1CF35",
"2. c #9F8246",
"3. c #95974C",
"4. c #A08245",
"5. c #A28F4D",
"6. c #BAA647",
"7. c #A99766",
"8. c #BC9260",
"9. c #B7A577",
"0. c #BFBF75",
"q. c #C1A647",
"w. c #DDA744",
"e. c #DBB854",
"r. c #D0AC55",
"t. c #E8B948",
"y. c #E8BB55",
"u. c #F8B94A",
"i. c #C5A663",
"p. c #CAAB67",
"a. c #D8BA6A",
"s. c #C3B077",
"d. c #E9BC70",
"f. c #DFC54B",
"g. c #DCC355",
"h. c #D7CC50",
"j. c #CBC057",
"k. c #EDC240",
"l. c #E6C648",
"z. c #F7CC41",
"x. c #FBCD43",
"c. c #F4C444",
"v. c #E2D241",
"b. c #FBD045",
"n. c #EECA53",
"m. c #E4C755",
"M. c #F2CC54",
"N. c #FAC456",
"B. c #EDD357",
"V. c #FFE34A",
"C. c #D9C369",
"Z. c #CFCD68",
"A. c #E9CA68",
"S. c #FAD97D",
"D. c #F0D46A",
"F. c #FFEF7B",
"G. c #FAE266",
"H. c #697686",
"J. c #717F91",
"K. c #7E8790",
"L. c #8E8E8E",
"P. c #868886",
"I. c #848B97",
"U. c #9C9896",
"Y. c #AD9A97",
"T. c #8C98A6",
"R. c #9EA4AB",
"E. c #B7B4B1",
"W. c #B2A998",
"Q. c #C4B795",
"!. c #D3BD8B",
"~. c #C7B9A3",
"^. c #CDBDBE",
"/. c #DDCF92",
"(. c #CBC394",
"). c #EBD584",
"_. c #EFCF94",
"`. c #EBD79A",
"'. c #FFDB91",
"]. c #F6DB94",
"[. c #F0D184",
"{. c #FFEE8B",
"}. c #FFF09D",
"|. c #F8E692",
" X c #D6CCB4",
".X c #FADFA8",
"XX c #FDEDA3",
"oX c #FFFFA6",
"OX c #FFE3B7",
"+X c #FCEAB7",
"@X c #FFF7B6",
"#X c #9BB3CB",
"$X c #98AAC0",
"%X c #AEBCC9",
"&X c #CCC9C7",
"*X c #DED1C0",
"=X c #DDDDDD",
"-X c #E2D5C4",
";X c #EEDEDE",
":X c #DDE7CC",
">X c #EAE2C9",
",X c #F9EAC7",
"<X c #FFFFC3",
"1X c #FAF7CB",
"2X c #F7EBD7",
"3X c #FFFED6",
"4X c #FFF5DA",
"5X c #FFFFDC",
"6X c #FDF5D1",
"7X c #D1D4E5",
"8X c #DCE5E0",
"9X c #EAEAEA",
"0X c #E6E6E4",
"qX c #F1EDE4",
"wX c #ECF6EF",
"eX c #FFF4E4",
"rX c #FFFEE4",
"tX c #F4F6E9",
"yX c #FEFEEC",
"uX c #F6FCE8",
"iX c #EBFAF6",
"pX c #F3F3F3",
"aX c #FFF5F1",
"sX c #FEFFF3",
"dX c #FFF5FF",
"fX c #F6FFFA",
"gX c #FFFFFF",
"hX c #F5F9F8",
"jX c #F4ECFB",
/* pixels */
"gXgXgXgXgXgXgXgXgXgXgXgXgXgXgXgXgXgXgXgXgXgXgXgXgXgXgXgXgXgXgXgXgXgXgXgXgXgXgXgXgXgXgXgXgXgXgXgXgXgX",
"gXgXgXgXgXgXgXgXgXgXgXgXgXgXgXgXgXgXgXgXgXgXgXgXgXgXgXgXgXgXgXgXgXgXgXgXgXgXgXgXgXgXgXgXgXgXgXgXgXgX",
"gXgXgXgXgXgXgXgXgXgXgXgXgXgXgXgXgXgXgXgXgXgXgXgXgXgXgXgXgXgXgXgXgXgXgXgXgXgXgXgXgXgXgXgXgXgXgXgXgXgX",
"gXgXgXgXgXgXgXgXgXgXgXgXgXgXgXgXgXgXgXgXgXgXgXgXgXgXgXgXgXgXgXgXgXgXgXgXgXgXgXgXgXgXgXgXgXgXgXgXgXgX",
"gXgXgXgXgXgXgXgXgXgXgXgXgXgXgXgXgXgXgXgXgXgXgXgXgXgXgXgXgXgXgXgXgXgXgXgXgXgXgXgXgXgXgXgXgXgXgXgXgXgX",
"gXgXgXgXgXgXgXgXgXgXgXgXgXgXgXgXgXgXgXgXgXgXgXgXgXgXgXgXgXgXgXgXgXgXgXgXgXgXgXgXgXgXgXgXgXgXgXgXgXgX",
"gXgXgXgXgXgXgXgXgXgXgXgXgXgXgXgXgXgXgXgXgXgXgXgXgXgXgXgXgXgXgXgXgXgXgXgXgXgXgXgXgXgXgXgXgXgXgXgXgXgX",
"gXgXgXgXgXgXgXgXgXgXgXgXgXgXgXgXgXgXgXgXgXgXgXgXgXgXgXgXgXgXgXgXgXgXgXgXgXgXgXgXgXgXgXgXgXgXgXgXgXgX",
"gXgXgXgXgXgXgXgXgXgXgXgXgXgXgXgXgXfXgXgXgXgXsXdXgXgXgXgXgXgXgXgXgXgXgXgXgXgXgXgXgXgXgXgXgXgXgXgXgXgX",
"gXgXgXgXgXgXgXgXgXgXgXgXgXgXgXgXgXdXgXgXgXgXgXgXgXgXgXgXgXgXgXgXgXgXgXgXgXgXgXgXgXgXgXgXgXgXgXgXgXgX",
"gXgXgXgXgXgXgXgXgXgXgXgXgXgXgXgXgXgXgXfXgXgXgXgXgXgXgXgXgXgXgXgXgXgXgXgXgXgXgXgXgXgXgXgXgXgXgXgXgXgX",
"gXgXgXgXgXgXgXgXgXgXgXgXgXgXgXgXgXgXgXgXgXgXgXgXgXgXgXgXgXgXgXgXgXgXgXgXgXgXgXgXgXgXgXgXgXgXgXgXgXgX",
"gXgXgXgXgXgXgXgXgXgXgXgXgXgXgXgXdXgXgXgXgXgXgXfXgXgXgXgXgXgXgXgXgXgXgXgXgXgXgXgXgXgXgXgXgXgXgXgXgXgX",
"gXgXgXgXgXgXgXgXgXgXgXgXgXgXgXgXsXgXgXgXfXgXgXgXgXgXgXgXgXgXgXgXgXgXgXgXgXgXgXgXgXgXgXgXgXgXgXgXgXgX",
"gXgXgXgXgXgXgXgXgXgXgXgXgXgXgXgXfXgXgXgXgXgXgXgXgXgXgXgXgXgXgXgXgXgXgXgXgXgXgXgXgXgXgXgXgXgXgXgXgXgX",
"sXsXsXgXgXgXgXgXgXgXgXgXgXsXsXgXfXgXgXgXgXgXgXgXgXgXgXgXgXgXgXgXgXgXgXgXgXgXgXgXgXgXgXgXdXgXgXgXgXgX",
"rXyXyXsXgXfXfXgXgXsXdXdXqXtXsXuXwXfXgXfXgXfXwX8XfXgXgXfXfXgXfXiXfXfXfXfXsXgXgXgXdXdXgXdXdXdXdXdXgXgX",
"aXeXyXfXfXfXfXfXgXdXjXgXsXyXuX:XsXsXsXsXtXtXyXsXsXsXsXsXsXsXsXsXfXfXfXfXfXgXgXhXgXdXgXdXgXgXgXgXgXgX",
"gXdXsXgXfXfXfXgXjXgXgXsXqX2XuXrXrXrXrXrX2X~.Q.~.rXuXrXrXrXrXrXyXfXfXiXwXfXsXsXsXuXuXuXrXrXrXrXyXsXgX",
"gXgXgXgXfXgXsXsXsXaXaXsXyXrX1X X>X-X X-X~.G z z  X X-X-X;X2X4XsXgXgXhXgXfXsXuXyXrXrXrX5X5X5X5XrXsXgX",
"dXgXgXgXsXrXrX5X6XrX5X,XQ.W.(.+XR.J.H.m b c c v v b H.K.T.R.%X7XjXdXgXgXgXsXyXtXyXyXrXyXsXsXsXsXgXgX",
"dXdXgXaX5X3X<X<X<X/.7.7.s.9.5.w g r @ p a r r a r r a s c b H.T.R.^.;XaXsXyXyXrXyXyXsXdXgXgXdXgXgXgX",
"dXdXdX4X+X}.{.{.E 6.C.).a.E < % 3 ; u i g i y @ g i i i i y j J 7.7.9.(..X1X3X3X4XeXaXdXdXdXdXdXgXgX",
"dXdX2X.XS.n.>...l.f.h.e.| B N B T 0 H 0 8 8 8 7 0 7 9 7 2 > 0 3.C.` I I 6.A.|.XX@X+X6XeXaXdXdXdXgXgX",
"dXaXOXr.' / / -.! >.=.l.l.t.c.o.v.v.v.v.v.v.v.v.=.f.*.*.*.*.*.=.( ( 1.o.V.X.=.h.j.R S.]._.+X+X6XaXgX",
"aX4X!.B V Q ^ ;.-.>.k.l.t.] +.x.o.@.@.@.@.@.@.#.$.! @.#.#.#.@.$.-.;.;.~ 1.1.z.X.B.G.f.U q.A.y.@XrXgX",
"yX6X'. ./ ^ &.&.( >.h.} } l.<.o.x.<.z.z.z.z.x.z.>.<.z.x.b.x.z.x.o./ +.] z...| U L h.v.Y O.1.[ F.3XgX",
"4X6X'.N.,.-.^ ) <.L & . $ < Y w.{ } { { { { { { _ _ ` | { { ` | N. .y.y.R * o   o & E n.O.( #...3XgX",
"eX6X[.w.+.,.,.x.N . O 4 6 % o C 4.4.4.4.4.4.4.4.Z Z S S S S S T A N F 8.5 $ = l = o , q.t...<.n.3XgX",
"sXuX_.e.+.+.u.y.* % J K x 6 * S p.i.i.i.i.i.i.i.8.i.i.i.i.i.p.p.i.a.s.D   - G Y.Y.l   1 F.m.[ G.3XgX",
"iXuX+X[.N.u.w.r.. ; %X#XT.P.- 4 m.:.:.:.:.:.:.:.k.k.O.O.:.k.u.c.=.h.j.2.X z E.&XY.z . 5 ).g.X.A.5XgX",
"iXfX5X,X@XXX.XOXW.a K.#XR.H.f Q.A.M.M.M.M.M.M.B.M.n.n.n.M.M.M.B.Z.Z.Z.Z.: k L.U.L.x k Q.`.).oX@XrXgX",
"fXgXsXyXuX5XeXyX9Xn t K.I.f M sXuX3X3X3X3X3X6X3X3X3X3X3X6X3X3X3X3X5XrXrXE.x h 7.r M &XaXrXrX5XeXsXgX",
"gXgXgXgXgXgXgXgXpX&XP.f d L.=XgXgXgXsXgXgXgXgXgXgXgXgXgXgXgXgXgXgXpX9XgXhXE.M d I.E.0XgXgXgXgXgXgXgX",
"gXfXgXgXgXgXgXgXpXgXpX=X;XfXgXgXgXgXgXgXgXgXgXgXgXgXgXgXgXgXgXgXfXpXhXgXgXgXhX0X0XpXgXgXgXfXgXgXgXgX",
"gXgXgXgXgXgXgXgXgXpXhXgXgXdXfXgXgXsXdXgXgXgXgXgXgXgXgXgXfXgXgXgXpXgXgXhX9XhXgXgXgXgXgXgXgXgXgXgXgXgX",
"gXgXgXgXgXgXsXgXgXgXgX9X0XgXgXgXgXgXgXgXgXfXgXgXhXgXgXgXgXfXgXgXgXgXgXpXfXgXhX0XgXgXdXhXgXgXgXgXgXgX",
"dXgXgXgXgXgXdXgXpXgXgXgXgXgXgXwXgXgXfXgXgXgXgXgXgXgXgXgXgXdXgXgXgXgXdXgXgXgXsXdXgXgXsXgXgXgXgXgXgXgX",
"fXgXgXgXgXgXgXgXgXpX9XhXgX9XpXgXgXgXgXgXgXgXgXgXgXgXgXgXgXdXsXgXgXgXgXhXpX9XpXdXgXgXgXgXgXgXgXgXgXgX",
"gXgXsXgXgXfXdXgXhXpXgXgXgXgXhXhXgXgXgXsXdXgXgXgXgXgXgXfXgXgXgXgXgXpXpXgXgXgXfXgXdXfXgXgXfXgXgXgXgXgX",
"gXgXgXgXgXgXgXgXgXgXgXgXgXgXgXgXgXgXgXgXgXgXgXgXgXgXgXgXgXgXgXgXgXgXgXgXgXgXgXgXgXgXgXgXgXgXgXgXgXgX",
"gXgXgXgXgXgXgXgXgXgXgXgXgXgXgXgXgXgXgXgXgXgXgXgXgXgXgXgXgXgXgXgXgXgXgXgXgXgXgXgXgXgXgXgXgXgXgXgXgXgX",
"gXgXgXgXgXgXgXgXgXgXgXgXgXgXgXgXgXgXgXgXgXgXgXgXgXgXgXgXgXgXgXgXgXgXgXgXgXgXgXgXgXgXgXgXgXgXgXgXgXgX",
"gXgXgXgXgXgXgXgXgXgXgXgXgXgXgXgXgXgXgXgXgXgXgXgXgXgXgXgXgXgXgXgXgXgXgXgXgXgXgXgXgXgXgXgXgXgXgXgXgXgX",
"gXgXgXgXgXgXgXgXgXgXgXgXgXgXgXgXgXgXgXgXgXgXgXgXgXgXgXgXgXgXgXgXgXgXgXgXgXgXgXgXgXgXgXgXgXgXgXgXgXgX",
"gXgXgXgXgXgXgXgXgXgXgXgXgXgXgXgXgXgXgXgXgXgXgXgXgXgXgXgXgXgXgXgXgXgXgXgXgXgXgXgXgXgXgXgXgXgXgXgXgXgX",
"gXgXgXgXgXgXgXgXgXgXgXgXgXgXgXgXgXgXgXgXgXgXgXgXgXgXgXgXgXgXgXgXgXgXgXgXgXgXgXgXgXgXgXgXgXgXgXgXgXgX",
"gXgXgXgXgXgXgXgXgXgXgXgXgXgXgXgXgXgXgXgXgXgXgXgXgXgXgXgXgXgXgXgXgXgXgXgXgXgXgXgXgXgXgXgXgXgXgXgXgXgX",
"gXgXgXgXgXgXgXgXgXgXgXgXgXgXgXgXgXgXgXgXgXgXgXgXgXgXgXgXgXgXgXgXgXgXgXgXgXgXgXgXgXgXgXgXgXgXgXgXgXgX",
"gXgXgXgXgXgXgXgXgXgXgXgXgXgXgXgXgXgXgXgXgXgXgXgXgXgXgXgXgXgXgXgXgXgXgXgXgXgXgXgXgXgXgXgXgXgXgXgXgXgX"
};
