/* XPM */
static char *_3d0a04bf3084b5e94bc6a3a120e4ae1opEHn8xnwlgvKXUn[] = {
/* columns rows colors chars-per-pixel */
"50 50 190 2 ",
"   c #091D1E",
".  c #071B1C",
"X  c #0C201F",
"o  c #071F21",
"O  c #151F20",
"+  c #0D2224",
"@  c #0F272A",
"#  c #0B2C2C",
"$  c #132425",
"%  c #1A2425",
"&  c #142827",
"*  c #152529",
"=  c #14292B",
"-  c #1C2B2D",
";  c #1C2628",
":  c #1C302F",
">  c #162D32",
",  c #1A2F32",
"<  c #1B3234",
"1  c #1C3339",
"2  c #133131",
"3  c #242E30",
"4  c #203433",
"5  c #24393C",
"6  c #2F3D3D",
"7  c #313F3F",
"8  c #293E41",
"9  c #273C41",
"0  c #2B4245",
"q  c #344343",
"w  c #3A4647",
"e  c #354A4E",
"r  c #3D494B",
"t  c #37464C",
"y  c #3A4F52",
"u  c #364E50",
"i  c #365051",
"p  c #3C5356",
"a  c #3E565A",
"s  c #404E4F",
"d  c #424E53",
"f  c #465154",
"g  c #4E5857",
"h  c #425559",
"j  c #4C575A",
"k  c #4D595C",
"l  c #435D5E",
"z  c #515B5C",
"x  c #495E61",
"c  c #555F61",
"v  c #556163",
"b  c #5A6464",
"n  c #506568",
"m  c #586D70",
"M  c #5C7276",
"N  c #626C6D",
"B  c #616A71",
"V  c #747D84",
"C  c #788281",
"Z  c #7D8F91",
"A  c #8B9D9F",
"S  c #839595",
"D  c #939B9E",
"F  c #8C9EA0",
"G  c #979FA2",
"H  c #8EA0A0",
"J  c #92A4A4",
"K  c #9BA3A6",
"L  c #96A8A8",
"P  c #9BACAD",
"I  c #99A6A9",
"U  c #9DAFB1",
"Y  c #9FB1B2",
"T  c #9CB5B9",
"R  c #A2AAAD",
"E  c #A5AEB0",
"W  c #AEAEB0",
"Q  c #A1B3B4",
"!  c #AAB3B5",
"~  c #A4B6B9",
"^  c #AFB7BA",
"/  c #A3BABF",
"(  c #ADBBBD",
")  c #B3B3B6",
"_  c #B5B7B9",
"`  c #B8B7BB",
"'  c #B5BABC",
"]  c #BABBBD",
"[  c #A4BDC2",
"{  c #ACBEC1",
"}  c #BCBDC1",
"|  c #B0B9C2",
" . c #C1BEC3",
".. c #AAC1C4",
"X. c #A7C6C8",
"o. c #ADC6CA",
"O. c #AACACC",
"+. c #B2C3C4",
"@. c #BDC1C3",
"#. c #B4C4CB",
"$. c #BDC6C8",
"%. c #B3CACD",
"&. c #BCCBCD",
"*. c #B3CDD2",
"=. c #BBCDD1",
"-. c #ADD1D1",
";. c #BDD6DA",
":. c #C2C3C5",
">. c #C6C8C7",
",. c #C4C6C9",
"<. c #C9C6CB",
"1. c #C5CACC",
"2. c #CBCBCD",
"3. c #D0CECF",
"4. c #C7D0CF",
"5. c #C6CDD1",
"6. c #CCCED1",
"7. c #D2CED3",
"8. c #C5D4D5",
"9. c #CDD2D4",
"0. c #CFD8D7",
"q. c #C3D6DA",
"w. c #CDD7D9",
"e. c #C7D9DD",
"r. c #CCD9DB",
"t. c #D3D3D5",
"y. c #DAD6D7",
"u. c #D3D9D7",
"i. c #D5D6D9",
"p. c #D8D7DA",
"a. c #D4DADC",
"s. c #DADBDD",
"d. c #E0DEDF",
"f. c #CCE0DF",
"g. c #DCE1DF",
"h. c #CCDEE2",
"j. c #D4DDE1",
"k. c #DDDEE1",
"l. c #E1DEE2",
"z. c #CDE2E1",
"x. c #D4E2E3",
"c. c #DDE2E3",
"v. c #DEE4E8",
"b. c #DCE9EA",
"n. c #DFEDF0",
"m. c #E2E3E5",
"M. c #E9E4E7",
"N. c #E4E6E9",
"B. c #EAE7EB",
"V. c #E5EAEC",
"C. c #EBEBED",
"Z. c #E0E9E6",
"A. c #F0E7EA",
"S. c #F0EBED",
"D. c #E7F2EE",
"F. c #EDF0EF",
"G. c #E4EDF2",
"H. c #ECEEF1",
"J. c #EBEFF8",
"K. c #F1EFF2",
"L. c #E6F2F4",
"P. c #EDF2F4",
"I. c #EFF8F6",
"U. c #E7F5F8",
"Y. c #EDF5FA",
"T. c #EEFAFC",
"R. c #F3F3F5",
"E. c #FBF3F6",
"W. c #F2F9F7",
"Q. c #F6F6F9",
"!. c #F5F6F9",
"~. c #F9F7FA",
"^. c #F9F7FB",
"/. c #F0FAFA",
"(. c #F5F9FD",
"). c #F6FEFF",
"_. c #F4FCFD",
"`. c #F9F9FA",
"'. c #FBFBFD",
"]. c #FAFAFC",
"[. c #FAF9FE",
"{. c #F8FFFF",
"}. c #FAFEFE",
"|. c #FDFDFF",
" X c #FEFDFF",
".X c #FFFEFF",
"XX c white",
"oX c #FEFFFF",
"OX c #FCFFFE",
"+X c #FCFDFE",
/* pixels */
"{.J.J.{.[.!.[.!.].OXE.OX~.'.'.Q.'.~.OX'.].OXQ.OXQ.OX{.`.OXOX'.'.+X`.`.+XE.+X+X`.OXR.OXQ.OX{._._.).P.",
"G._.{.N.H.H.~.H.E.`.H.OXK.^.[.B.'.H.'.K.E.'.P.'.R.OXQ.].OX~.`.[.`.`.`.+XR.+X+X`.`.B.OXC.P.Y._.).{.).",
"n.J.(.j.OXC.].Q.C.~.B.[.B.Q.!.B.[.B.[.K.C.OXB.].M.E.C.B.R.B.R.C.R.F.F.`.M.E.F.S.OXH.OXR._._.P.L.0.{.",
"| B V ^ V.,.2.t.y.l.2.M.6.l.k.7.m.2.m.y.s.Z.3.M.t.m.a.s.N.t.M.s.Z.d.t.F.t.M.d.d.m.<.l.5.k.c.K g C D.",
"| 3 r a.(.c.H.C.l.S.y.E.j.B.N.k.R.i.K.m.m.R.s.Q.s.R.N.M.Q.s.~.M.F.F.d.`.d.`.C.C.`.M.[.c.(.{.K % z I.",
"=.* d G.P.j.!.M.A.E.l.OXl.^.J.B.'.k.OXC.C.[.s.OXs.W.C.B.OXs.OXN.R.W.m.`.m.OXC.S.].B.OXk.G.{.E % b {.",
"| - h 8.j.:.k.:.7.d. .l. .k.6.5.l.` s.<.<.s.] m.<.s.t.2.C.:.B.9.g.g.>.M.<.A.t.t.M.6.H.1.i.V.G % g _.",
"[ * f ( v.:.l.<.y.l. .B. .l.i.7.V. .M.6.t.m.:.B.>.M.t.t.S.:.C.9.g.m.>.S.>.C.t.y.C.2.B.i.k.V.D % s _.",
"#.* y j.).k.!.K.S.E.M.OXN.!.!.C.OXm.OXC.C.OXm.OXm.!.Q.M.OXm.OXB.R.R.M.`.M.`.F.S.'.l.'.G./.).K O g I.",
"[ > h q.V.2.m.y.y.M.7.B.7.k.j.7.C.2.C.y.y.C.<.B.9.M.m.t.C.t.C.u.m.m.u.F.y.S.d.d.K.6.H.6.j.H.K 3 b _.",
"X.0 m e.V.8.B.y.d.M.7.A.7.N.k.i.H.2.C.s.s.C.2.S.t.M.M.a.R.t.R.s.Z.Z.y.F.y.S.d.d.K.y.K.i.k.P.! w m _.",
"O.0 M b.Y.c.OXB.A.E.M.'.N.!.H.V.OXl.OXC.C.OXm.OXm.Q.R.N.OXm.OXN.W.I.M.`.d.`.S.F.~.l.OXC.P.{._ w N _.",
"X.2 l z.T.x.'.S.A.E.l.'.M.^.J.V.OXM.OXC.C.OXm.OXm.Q.R.M.OXm.OXB.E.W.M.+XB.'.K.K.].m.OXC.!.{.E ; b W.",
"O.# i f._.a.K.B.M.E.l.[.l.K.H.c.'.s.OXB.B.OXs.'.s.R.P.m.OXl.].M.W.F.Z.`.m.`.C.C.'.m.'.c.P.{.R O k P.",
"-.# a z._.c.R.C.A.E.l.'.l.!.J.N.OXl.OXC.B.OXl.OXM.W.R.M.OXm.OXB.R.F.M.+Xm.E.C.S.OXM.OXN.P.{.E ; z I.",
"X.# a z.T.x.!.K.A.E.l.[.N.!.J.N.OXl.OXC.C.OXm.OXm.Q.Q.B.OXm.{.B.W.W.N.OXM.OXK.K.[.l.'.N.P.{.E % v I.",
"*.> p q.L.8.V.s.k.H.7.R.j.k.N.j.R.7.P.s.k.R.t.R.i.B.N.s.Q.s.R.m.C.C.k.R.s.P.N.N.H.i.!.j.c.T.P > k I.",
"O.@ e =.b.1.j.5.2.k. .l. .9.j.1.k.:.m.2.2.m.:.c.>.a.i.>.N.>.m.6.y.s.2.c.2.x.0.i.l.<.l.6.i.G.F . x I.",
"*.> h h._.j.P.N.B.'.l.'.B.Y.(.N.{.m.OXC.C.OXm.OXM.!.Q.M.OXm.OXB.Q.E.B.{.V.{.P.P.'.l.'.B.!.).~ , k T.",
"o.> p z._.x.(.H.M.~.j.^.k.J.J.v.{.s.[.N.B.OXs.OXk.R.P.m.OXg.Q.m.R.R.M.[.c._.C.C.^.k.^.k.G.).P o j Y.",
"o.@ p h.T.r.H.k.B.[.k.{.N.J.Y.N.OXs.OXB.C.OXl.OXM.Q.R.M.OXm.[.B.Q.E.M.{.m.{.H.G.'.l.'.N.!.).E @ j Y.",
"*.> p h._.x._.G.m.R.p.^.k.G.J.j.(.s.].N.N.[.s.{.s.P.P.m.OXk.].m.C.S.k./.c./.N.B.'.l.[.l.Y.).U + j Y.",
"{ @ y h.T.j./.H.B.'.k.OXl.J.J.G.OXc.OXC.C.OXc.OXm.Q.Q.N.OXm.OXC.~.Q.N.{.Z.).H.J.OXl.'.N.Y.).Y = j Y.",
"*.> t ;.U.w.H.c.m.K.i.!.k.V.J.k.(.y.].m.M.Q.s.[.a.F.C.k.{.s.Q.M.C.S.m.W.c.I.V.N.^.l.[.k.V._.L + j Y.",
"*.> 9 | h.| w.,.,.7.} p.} 9.5.} a.} t.>.>.t.] s.:.t.9.:.c.:.s.>.y.s.:.c.>.a.i.6.k.<.7. .5.j.L . h J.",
"[ 1 p h.T.j.(.V.C.Q.l.OXN.!.J.G.{.m.[.C.H.OXN.{.m.Q.R.M.OXM.OXC.Q.[.M.{.V._.R.G.!.B.'.J._._.T * j Y.",
"[ 1 e o.x.$.N.9.7.k.6.V.5.k.j.9.m.2.m.t.t.m.2.M.2.c.s.t.C.6.C.y.d.M.9.C.0.c.g.i.l.7.l.w.j.b.J + d J.",
"*.1 9 | e.! 5.}  .<.} 7.} 5.1.} 9._ 6.@.:.t.] t.] 2.6.@.s.] i.:.3.t.@.s.$.9.4.>.k.} 7._ ,.h.F + r n.",
"[ o 5 =.U.$.k.8.i.l.6.V.5.k.j.w.V.2.m.i.a.m.3.B.2.c.s.9.C.6.N.t.l.M.7.C.i.c.j.j.J. .K.p.v.L.F o r b.",
"*.> e q.T.r./.C.N.R.l.^.l.!.J.N.(.m.Q.N.C.Q.c.{.m.R.R.M.OXm.OXC.K.~.m.{.N.Q.J.B.^.p.^.B.Y.).L - d G.",
"[ > 0 ~ 8.! i.,. .6.} i.} 9.5.} i.] t.>.:.t.] a.@.t.t.:.c.:.s.2.t.y.:.g.$.0.7.<.k.` k.} 1.h.Z * j J.",
"o.a M e.G.w.Y.i.l.B.p.R.j.G.V.j./.s.R.N.M.Q.k.Q.s.C.C.c.[.s.Q.M.C.Q.s.).c.P.J.l.^.7.^.k.v.T.U u c Y.",
"*.5 x =._.8.V.N.s.].t.+Xs.V.P.a.{.t.].m.m.{.i.OXs.R.R.s.OXy.OXm.C.E.s.OXu.W.D.m.].s.OXl.V._.P < y I.",
"/ @ u #.T.w.F.Z.y.W.2.].i.V.H.a.[.t.].k.m.[.t.OXs.H.H.s.OX7.{.l.S.R.s.OXu.I.C.g.Q.t.^.p.N._.L = w D.",
"/ @ e +.T.r.V.c.y.`.2.+Xa.V.H.j.{.t.Q.m.m.].t.OXs.H.C.s.OX7.{.k.S.R.y.OXu.I.C.d.].y.!.k.V.).L X q V.",
"[ @ u +.T.9.V.g.u.Q.2.].i.N.G.i.).9.Q.k.s.].t.[.t.C.C.a.OX2.].s.M.S.u.].9.D.V.s.].y.~.a.V._.J + 6 n.",
"o.< h &._.w.P.V.s.`.t.OXj.H.H.j.{.t.OXm.M.OXy.OXs.Q.R.s.OXt.OXM.S.`.d.+Xu.W.D.d.'.y.'.j.V._.P < 7 b.",
"T + 8 P r.! 4.>.] t.W s.` 5.6.' k.) s.:.@.s._ g.] t.t.] m.) l.:.3.y.] m.' u.3.:.y.` l.} ,.x.S X 7 D.",
"O., i +.U.&.c.u.3.C.:.K.6.j.v.6.P.<.H.i.a.H.<.Q.2.M.m.0.Q.:.R.t.m.M.3.W.4.Z.Z.u.K.6.R.t.c.T.L : 7 Z.",
"[ + 0 .._.a.P.c.y.`.7.OXp.G.H.j.OXt.].m.m.'.t.OXs.P.C.s.OXt.{.l.C.R.s.+Xu.I.C.g.OXy.[.a.V._.J $ 6 b.",
"T 2 e +.L.0.Z.N.s.E.t.`.s.V.P.a.(.t.Q.m.m.R.a.'.s.B.H.a.{.t.Q.d.M.R.u.].u.I.Z.d.OX2.OXs.j._.H < q c.",
"..& 5 +.T.0.c.Z.u.F.3.R.s.c.G.w.(.t.R.m.m.R.t.].s.B.C.t.Q.t.Q.s.m.S.t.W.0.P.m.g.'.:.Q.p.M.).H + 7 f.",
"X.: 0 +.T.r.V.V.s.W.3.W.j.N.P.p./.t.P.k.c.P.t.].s.C.H.y.OXt.].l.M.E.y.].u.I.N.g.OX7.[.k.V._.L & e b.",
"o.u n %.n.a.V.c.s.E.t.`.k.N.P.a.[.s.!.M.M.Q.s.{.g.C.K.s.OXa.{.m.M.W.s.{.u.W.V.c.'.y.'.l.c._.~ q g D.",
"/ 0 p Y e.@.9.>. .s.` k.,.5.i.@.c.} s.2.2.s.@.m.:.t.s.:.B.:.Z.2.t.d.:.Z.$.g.0.3.k.} M.1.1.b.L 5 s b.",
"..@ < Y b.1.0.0.>.M.:.N.6.i.k.1.N.:.c.6.6.m.:.B.2.a.k.>.C.<.B.t.y.M.>.F.>.Z.u.3.B.:.l.9.a.L.H   q g.",
";.< 8 +._.x.V.F.d.+Xy.OXN.H.T.j.OXc.OXC.C.OXm.OXk.H.R.s.OXs.OXB.S.`.d.+Xg._.G.M.OXk.^.N.P.).Y & 7 f.",
"%.5 0 Q a.+.1.>.] s._ j.} 5.w.} s.` i.>.>.s.] s.>.t.a.:.N.:.N.2.t.Z.:.M.:.m.t.7.s.] s.1.1.f.J & q b.",
"=.: < Q f.( 8.@.} 9._ 0.' 1.4.] a.^ t.:.$.u._ a.@.4.2.@.s.' a.>.3.g.>.g.:.g.3.>.s.] g.@.&.x.J $ 6 g.",
"=.< 5 { D.1.x.u.a.P.0.P.u.Z.V.r.W.9.P.g.g.P.t.W.a.C.N.g.W.a.W.m.g.M.u.F.u.Z.Z.y.F.4.F.0.f.L.R - 7 x."
};
