/* XPM */
static char *a227c9e276d540dbfe517049f1d17d69FsQyDAfr3UG1Zde8[] = {
/* columns rows colors chars-per-pixel */
"50 50 251 2 ",
"   c #060404",
".  c #160A08",
"X  c #050816",
"o  c #191619",
"O  c #17120F",
"+  c #281408",
"@  c #261916",
"#  c #30150B",
"$  c #27211C",
"%  c #352419",
"&  c #0C172A",
"*  c #172A35",
"=  c #1B272C",
"-  c #282727",
";  c #362A29",
":  c #282B37",
">  c #352D34",
",  c #343135",
"<  c #3A3433",
"1  c #39373C",
"2  c #2F3133",
"3  c #4A2916",
"4  c #6F2D09",
"5  c #5A3729",
"6  c #44393A",
"7  c #4B342B",
"8  c #683928",
"9  c #642E24",
"0  c #581E06",
"q  c #4E4039",
"w  c #714933",
"e  c #042947",
"r  c #142B43",
"t  c #16344A",
"y  c #10334E",
"u  c #222E42",
"i  c #3C3B43",
"p  c #373A48",
"a  c #2E3B51",
"s  c #163D63",
"d  c #443D44",
"f  c #493D45",
"g  c #433842",
"h  c #403F51",
"j  c #3D4446",
"k  c #344257",
"l  c #2E4D6F",
"z  c #164571",
"x  c #434246",
"c  c #44454A",
"v  c #4C444B",
"b  c #444A4C",
"n  c #4C4A4E",
"m  c #4B4544",
"M  c #52454C",
"N  c #544A4C",
"B  c #574848",
"V  c #59534D",
"C  c #4D4C52",
"Z  c #484856",
"A  c #534C53",
"S  c #5A4D54",
"D  c #5A4C56",
"F  c #4D5156",
"G  c #535155",
"H  c #55545A",
"J  c #5A545A",
"K  c #5A5659",
"L  c #61555A",
"P  c #625658",
"I  c #72554B",
"U  c #72655A",
"Y  c #5E5C62",
"T  c #575664",
"R  c #48556B",
"E  c #635C62",
"W  c #6B5D65",
"Q  c #695B65",
"!  c #496173",
"~  c #646164",
"^  c #6B6266",
"/  c #6C646B",
"(  c #68686C",
")  c #71656C",
"_  c #726A6E",
"`  c #6C6C72",
"'  c #736A72",
"]  c #766B75",
"[  c #787478",
"{  c #75736F",
"}  c #823B1F",
"|  c #8D4819",
" . c #934F30",
".. c #AD6239",
"X. c #A55A3D",
"o. c #8E5D49",
"O. c #956A54",
"+. c #94674C",
"@. c #A96748",
"#. c #AA6C52",
"$. c #B77559",
"%. c #A97356",
"&. c #8C756B",
"*. c #A87B65",
"=. c #B67B65",
"-. c #C47A54",
";. c #C37D65",
":. c #B8846A",
">. c #B78A74",
",. c #A48472",
"<. c #AD856E",
"1. c #CF855B",
"2. c #C88569",
"3. c #D78C68",
"4. c #CA9575",
"5. c #D89778",
"6. c #CE9070",
"7. c #E69C7C",
"8. c #E2996D",
"9. c #ECAB7A",
"0. c #337294",
"q. c #3B7CA2",
"w. c #486A86",
"e. c #487789",
"r. c #57738A",
"t. c #477B96",
"y. c #547695",
"u. c #586D86",
"i. c #6A7889",
"p. c #4E7CA5",
"a. c #617FA3",
"s. c #837983",
"d. c #3D85A4",
"f. c #52829E",
"g. c #778A98",
"h. c #798488",
"j. c #5784A7",
"k. c #4F8BB0",
"l. c #6998BA",
"z. c #6E8DAD",
"x. c #6D9AC8",
"c. c #66A3DB",
"v. c #75A7D9",
"b. c #74A0C7",
"n. c #4B9BEE",
"m. c #4798E9",
"M. c #539CEC",
"N. c #589FED",
"B. c #599DE4",
"V. c #4D9DF4",
"C. c #4C99FA",
"Z. c #549EF1",
"A. c #609FE4",
"S. c #57A0EE",
"D. c #5BA2ED",
"F. c #5DA1E4",
"G. c #53A2F5",
"H. c #5BA4F2",
"J. c #55A3FB",
"K. c #5CAAF9",
"L. c #5AA7F6",
"P. c #4FA1F3",
"I. c #62A6ED",
"U. c #64A9EB",
"Y. c #6AACEB",
"T. c #68A6E4",
"R. c #76ADE7",
"E. c #6EB1ED",
"W. c #72B2ED",
"Q. c #7CBBED",
"!. c #77B5EC",
"~. c #61A6F1",
"^. c #63ABF3",
"/. c #63AEF7",
"(. c #6AB5F9",
"). c #74B5F2",
"_. c #7BBBF2",
"`. c #75BAF8",
"'. c #579BDE",
"]. c #6BC2FA",
"[. c #79C1F8",
"{. c #92979B",
"}. c #8F8E8C",
"|. c #AD998D",
" X c #A7A896",
".X c #8E99A4",
"XX c #9DA6A9",
"oX c #8AA9AE",
"OX c #A5A8A8",
"+X c #A8B5B7",
"@X c #B5BAB8",
"#X c #AEB0AE",
"$X c #A3A49B",
"%X c #D99D83",
"&X c #C79E8B",
"*X c #DDA68A",
"=X c #D6A892",
"-X c #E9A588",
";X c #F3A989",
":X c #EDB491",
">X c #C2B8B3",
",X c #F6BBA4",
"<X c #E19F87",
"1X c #BAC1BA",
"2X c #FCC89A",
"3X c #FFC28D",
"4X c #C6C6BB",
"5X c #FCCFAB",
"6X c #91B3D5",
"7X c #AABBC9",
"8X c #B1BEC4",
"9X c #81BEEE",
"0X c #87B4E3",
"qX c #85BDF2",
"wX c #8FBBEF",
"eX c #9DC5DB",
"rX c #9FC4D7",
"tX c #98CDD8",
"yX c #ACC5CD",
"uX c #B8C6C9",
"iX c #A2C5D5",
"pX c #A2C7DA",
"aX c #A4CADC",
"sX c #AAC9D8",
"dX c #B6C9D9",
"fX c #B1D2DA",
"gX c #83C0EF",
"hX c #8BC2EC",
"jX c #8EC3E8",
"kX c #95C4E5",
"lX c #9DC9E4",
"zX c #91C4E9",
"xX c #9ACBEB",
"cX c #99C7E8",
"vX c #97D2E8",
"bX c #88C3F6",
"nX c #94C5F4",
"mX c #98C8F3",
"MX c #95D0F1",
"NX c #A4CDE3",
"BX c #ABCDE1",
"VX c #A2C9E9",
"CX c #B5CCE2",
"ZX c #A3D1E4",
"AX c #A3CEF6",
"SX c #BEE2F2",
"DX c #C6C9C8",
"FX c #CED3D2",
"GX c #C6DAE5",
"HX c #CFE4E6",
"JX c #DFE0DB",
/* pixels */
"M.M.M.M.M.M.m.M.M.M.M.M.M.m.M.n.m.n.G.J.J.P.P.V.C.C.C.C.C.C.C.C.C.M.M.Z.C.M.J.J.J.J.V.G.G.N.Z.N.Z.Z.",
"M.M.M.M.M.M.M.M.M.M.M.M.M.M.M.M.G.G.P.n.m.m.V.P.J.P.J.J.C.J.J.J.Z.Z.~.C.Z.C.V.V.P.P.Z.G.Z.Z.N.N.Z.Z.",
"M.M.M.M.M.M.M.M.M.M.N.M.M.M.M.Z.H.P.P.n.P.G.L.K.G.Z.Z.Z.Z.Z.Z.Z.C.A.Z.~.H.Z.C.V.P.G.G.G.G.Z.H.N.D.H.",
"M.M.N.M.M.M.M.M.G.S.N.D.N.N.N.N.S.P.S.H.L.H.S.n.L.^.~.~.~.~.~.~.A.A.M.N.N.~./.J.J.L.G.G.Z.H.N.D.H.N.",
"N.D.N.N.N.N.N.D.H.D.H.D.H.D.N.N.H.D.S.D.D.F.B.'.F.c.F.F.A.A.c.c.~.A.A.N.N.~.K.K.J.J.L.H.L.S.H.H.H.H.",
"D.M.D.D.N.F.N.D.H.D.H.D.H.H.~.D.(.F.'.'.U.).`.(.c.c.c.c.v.v.c.v.R.R.0X~.~.N.~./.L.L.L.L.H.H.I.H.D.D.",
"D.D.D.I.F.I.D.F.~.I.H.I.~.I.~.I.T.T.c.T.R.T.c.x.l.k.l.l.l.l.l.l.x.v.0XR.T.~.~./.L.K.L.L.H.H.U.I.I.~.",
"D.F.H.F.D.D.D.D.~.I.I.I.I.I.~.T.c.v.v.v.x.p.l e e e e * t t t t p.a.v.0XT.A.~./.L.L.L.L.U.U.U.U.I.U.",
"I.I.I.I.F.U.U.U.D.(.'.U.`.F.D.T.v.0Xk.z e e e y y t * * * * * t t l a.0XT.A.~.~./.K././.^.U.Y.Y.^.^.",
"U.U.U.U.U.U.D.U.F.`.F.U./.F.^.!.6Xa.s & & r * * * * 2 - * = - 2 u e w.x.0XR.Y.(./.K././.^.Y.Y.Y.Y.Y.",
"U.U.U.U.U.U.Y.U.F.`.F.^.^.T.`.R.y.a & X r a a : o $ $ $ + O + $ : X & y.0XR.T.)././././.Y.Y.Y.Y.Y.^.",
"Y.Y.U.Y.U.T.Y.Y.Y.).U.E.Y.U.`.x.y = * : 1 o . . O $ $ + + + + O & X X k 6Xv.R.(././././.(.W.R.E.W.Y.",
"Y.Y.E.Y.Y.Y.E.Y.E.).T.W.).).).0.& o > M 6 % @ ; # # # 3 7 w w 7 @ X & r b.v._.Y.(.(.(.(.(.E.R.R.W.W.",
"E.E.E.E.W.E.E.E.).E.U.`.).`.^.z X . @ % % % 3 7 # 3 5 8 +.<.<.,.; - : & oX0XbX).(.(.(.(.).).!.!.!.).",
"W.W.W.W.W.W.E.W.).E.W.bXE._.W.s o % 7 7 # + + + 8 o.&.*.>.4.:.<.6 : - & 6Xv.[._.`.(.].(.`.W.!.!.).).",
"W.W.W.W.W.W.W.W.E.W._.[.T.).W.s   q >.|.,.O.+.%.O.&X5X2X*X5.2.:.5 @ o & 6Xb.E.[.(.(.].(.).Q.!.).!.).",
"_._.)._.Q.)._._.Y.gX[.W.bXbXc.0.o I =X>.4.2X2X2X5X5X:X=X=X*X4.:.9 o X & i.wX9X[.].].].].`.`._.Q.[.[.",
").Q.Q.Q.Q.)._.Q.W.[.Q.R.`.bXT.j.o w &X5.8.3X3X9.9.3X:X2X=X4.1.%.o.9 @ : g.AXhXQ.].].].].`.`._.Q.[.[.",
"Q.Q.Q.Q._.Q._.Q.Q.9XQ.!._.bXgX6XO w >.4.9.9.9.3X2X2X:X=X*X6.2.2.s. .@ g s.6XwX9X[.[.[.[.qXqXqXwX[.Q.",
"gXQ.9X9X9X[.9X9XgXQ.Q.[.gXgXbXVXb I >.4.1.8.9.3X2X4.+.w 8  .@.$.=.O.9 9 i..X6XnXbX[.[.bXqXqXwXwXgXjX",
"gXgXgXgXgXgXgXqXbXQ.gXbXgXQ.gXVX` o.&.+.| | | 1.-X@.9 0 4 } X.$.;.=.9 D s.s.6XAXnXbXbXqXnXwXwXnXhXbX",
"hXgXhXbXgXhXhXbXhXhXbXMXhX9XhXVX` I o. .4 4 } ..;X;.X.#.6.%X7.7.<X;.9 Q OXOXGXVXwXnXnXnXnXnXnXAXzXnX",
"jXjXjXhXjXjXhXjXjXzXmXjXjXnXmXVXi.&.&X2.-.1.-.3.7.2.;.%X,X,X;X-X%X;.9 O.>X+XfXrXVXmXnXnXnXnXAXwXmXzX",
"zXzXzXzXzXzXzXzXzXmXxXjXkXmXAXVXs.&.&X*X;X;X3.1.7.2.;.%X;X;X;X;X;.;.8 s.>Xs.yXtXcXmXxXnXnXmXwXAXmXMX",
"kXkXkXkXcXxXcXcXxXcXxXxXxXxXxXBX#X&. X:X-X;X3.8.7.2.6.<X-X-X;X<X:.<.3 ,.1X+XuXfXvXvXMXMXMXMXAXmXMXAX",
"kXkXkXkXlXkXlXlXlXlXlXxXlXxXVXaXFX&.|.=X;X9.3.-.5X3.#.;.<X,X7.$.O.,.7 ,.1XyXfXtXvXvXvXvXMXMXvXxXxXZX",
"eXeXeXeXeXlXlXeXlXlXNXlXNXlXNXBX8X{.&.&X*X2.1... .}  .@.$.2.;.;.<.&.q #X1XfXHXtXtXvXvXvXvXvXvXxXZXNX",
"rXrXeXeXeXeXaXeXeXeXaXeXaXNXaXsX8XOX&.>.:.X... . . .$.=.o.X.$.2.&.V N uXyXtXfXtXtXvXvXvXvXvXvXZXZXNX",
"iXiXiXeXpXtXpXpXpXtXsXaXaXaXaXsXFX@X&.&.:.X...| 3.$.+.%.#.:.2.%.O.i h FXHXdXiXeXZXZXZXZXZXNXZXNXaXNX",
"iX6XiXiXrXiXpXiXaXiXpXsXaXBXaXsXGX7X' O.:.4.6.1.#.+.@.>.5.:X5.O.B > g +XdXGXfXSXfXZXZXaXBXBXBXBXBXBX",
"iXrXiXiXiXpXsXiXaXiXsXsXsXaXfXsXuX1X}.I ,.5.5.7.$.1.9.=X9.6.@.8 # & & j ` 7X7XBXBXBXfXfXCXCXdXCXfXsX",
"yX7X7XyX7XyXyXyXyXyXyXyXyXyXyXyXuXJXFXU w *.%.4.:.*.<.,.+.+.w 3 O h o X k dXdXGXCXdXfXdXdXdXdXdXdXsX",
"4XDXDX@XOX{.{.XXXX{.XX#X#X X X#X X#X4X1X; % q I I I q q 3 # + + > ` T o o h.FXFXuXuXuXuX@XyXuXuXuX1X",
">X>X#X$X{.OXOXOX8X>XDX>X@X X X X X1X@X,.    @ $ ; $ + O . O $ > L A d > 2 b i.XX#X8XuXGXHXFXuX@XDX1X",
"JXDX#X$X@XuXFXFXFXFXFX>X4X4X4XJXJX4X XU $ V V O $ + . . + ; 6 B d = o : : o - F T ` {.+X+X1X+XOX+X1X",
"HXDX+XXX+XuXdXuX8XDXDX8X1X4X4X4X}.h.V 2 2 { { ; 6 < < 6 B V P V , , , , 2 1 1 j 2 1 j F ( [ h.h.h.h.",
"oX.Xg.h.g.g..Xg.g..XXXXX X,.{ F $ - < - $ 2 m m 6 6 6 B P P S f 1 d x 1 i G G 1 b b j j j F F ! ` { ",
"e.w.e.e.e.e.r.i.h.i.` R b j j = 2 2 q 1 < $ < q % - ; 6 m B B B C d 1 i x x i i V b j j j j b b ~ ( ",
"0.0.f.f.f.f.f.f.u.l k : * 2 2 j n q q ; m - > ; - ; 6 B B S I L W G A J H C C H j j j j j b b j 1 j ",
"f.d.d.! f.! ` ! k u : k j p 2 j 1 b H - 1 $ 6 S ; 6 J ^ ) W L L d n n d x J K F V F F F F b b b V n ",
"0.d.0.d.y.w.w.k u u u u : u > u - 2 , , > , v L g f D L I D M f d d v C C v c x j j x j b n b b n b ",
"0.d.0.0.t.0.w.u a k p h h h h g x n A A N G E ^ f D Q Q Q W Q Q / W Q E J J A n C C b F G F n c Y ~ ",
"d.d.0.f.p.w.! a R T T T T D Z h C G J J J J S M D D Q Q Q Q W ) / ) / ) ' ' ' ` ~ ~ ( ` ` ( Y K K K ",
"k.d.0.j.y.l l Z Z Z h Z h h f f d i v n H G n f f f M D M M f M M D D J E ^ ` ] ( ( ( { [ { ( ~ K K ",
"d.d.0.p.w.t k R g 1 > > > > > 1 d i d n T Q Q D 6 6 g g f g f f f M f f f f d d N F F H Y Y Y Y A V ",
"d.d.q.f.! u Z T D B M f f M A J ~ Y T J D L h f 6 g f f f D D L J D D D M f h f n v c b F H H K m m ",
"k.l.j.y.! a H T D D S B K P E / / ~ Y J A h f g f f D Q Q W ) ] Q ) ) ) ] ` ) / ~ E Y Y Y ~ Y K ^ ^ ",
"j.l.f.y.! a Z M ; ; ; 7 6 6 m m d h n A A A f h D Q Q Q ] ] ] ] ] ] [ [ &.[ ] ' [ [ [ [ { ( K F E ~ ",
"k.z.z.y.a u p i d 6 f M d : : p f v C J J n d d d v A A A n v v M D A S P L K L ^ ^ _ { ~ S S L _ _ ",
"p.p.j.w.k u Z F E A A J M i p T H A A T J n d d d v A A A n n v M M M N N N N N N G J L P K K ^ ) ) "
};
